<?xml version="1.0" encoding="utf-8"?>
<!-- Generator: Adobe Illustrator 19.0.0, SVG Export Plug-In . SVG Version: 6.00 Build 0)  -->
<svg version="1.1" id="Layer_1" xmlns="http://www.w3.org/2000/svg" xmlns:xlink="http://www.w3.org/1999/xlink" x="0px" y="0px"
	 viewBox="-999 251 1000 1000" style="enable-background:new -999 251 1000 1000;" xml:space="preserve">
<style type="text/css">
	.st0{fill:#FFFFFF;}
</style>
<g>
	<g id="head_arc">
		<path id="XMLID_88_" class="st0" d="M-475.7,271.9c9.9-0.2,19.6,1.3,29.2,3.1c54.7,9.9,102,34.5,141.1,74.2
			c37.6,38.2,61.5,83.9,70.5,136.9c9.7,57.2,0.8,111.8-25.9,163.4c-0.7,1.3-1.4,2.8-2.3,4.1c-6.1,10.1-19.1,13.5-29.5,7.9
			c-10.3-5.7-14.4-18.3-8.9-29c6.6-12.7,12.4-25.7,16.7-39.4c23.5-74.3,3.4-157.2-51.4-212.6c-31.3-31.7-68.5-52.9-112.2-61.2
			c-73.2-13.8-138.1,4.3-193,55c-34.6,31.9-55.9,71.7-64.1,118.1c-8.3,46.9-1.4,91.8,20,134.3c1.1,2,2.2,4.1,3.2,6.3
			c5.1,10.6,1.2,23-9,28.6c-10.3,5.7-23.3,2.4-29.5-7.7c-2.2-3.6-4-7.3-5.9-11.2c-12.7-26.1-21.2-53.5-24.2-82.4
			c-8.7-82.3,16-153.2,73.6-212.1c37.8-38.6,83.8-62.4,137-72.4c10.7-2,21.4-3.7,32.5-3.7c2.5-0.2,5.3,1,7.7-0.8
			c6.3,0,12.5,0,18.6,0C-479.8,272.7-477.6,271.7-475.7,271.9z"/>
	</g>
	<g id="tentacle_main">
		<path id="XMLID_86_" class="st0" d="M-694.4,1047c0,8.9,0,17.4,0,26c0,1.7-1.2,2-2.3,2.5c-4.2,2-8.5,3.8-12.6,6
			c-5.9,2.9-11.4,6.3-16.7,10.1c-10.2,7.5-17,17.2-19.6,29.7c-2.8,13.1-3,26.2,0.5,39.3c2.5,9.1,7.6,16.2,15.5,21.4
			c11.9,7.9,25.1,12.1,39.4,13c8.8,0.5,16.6-2.2,23.6-7.3c8.2-6.1,14.6-14,20.9-21.9c9-11.3,12.5-23.8,12-38.1
			c-1.9-60.2-0.5-120.5-0.8-180.9c-0.1-32.1,0-64.2,0.1-96.2c0-8.7-0.6-17.4,1.6-26.1c3.8-15.4,12.9-26.1,28.9-29.7
			c10.2-2.3,20.1-0.5,29.6,3.7c11.2,4.8,22.6,8.8,34.4,11.8c40.9,10.2,80.6,6.4,119.3-9.9c6.6-2.8,13.1-5.5,20.4-6.3
			c22-1.9,40.2,11.7,44.1,33.4c0.7,4.2,1,8.3,1,12.5c0,68.7,0,137.3,0,206.1c0,29,0.1,58,0.2,86.9c0,10.8,1.1,21.4,5.1,31.6
			c7.2,18.5,20.8,29,40.2,32.3c10.1,1.8,20.2,1.6,30.2-0.8c13.6-3.4,24.5-10.7,31.7-22.8c8.3-13.7,12.3-28.5,9.4-44.6
			c-1.7-9.5-6-17.6-12.4-24.8c-7.2-8.1-15.6-14.2-25.7-18.2c-5.7-2.2-11.3-4.4-17-6.5c-2-0.7-2.9-1.8-2.8-4.1
			c0.1-7.5,0-14.9,0.1-22.5c0-3.4,0.1-3.5,3.2-3.4c35.6,1.3,63.5,16.1,80.7,47.7c24.9,45.9,7,101.6-39.8,126.3
			c-15.6,8.2-32.2,12.3-49.9,11.3c-35.6-1.9-70.7-24.7-82.7-59.4c-4.8-14-6.7-28.5-7-43.2c-0.5-21.8-0.7-43.7-0.8-65.4
			c-0.1-53.2-0.1-106.2-0.2-159.3c0-21.6-0.2-43.3-0.1-64.9c0-4.3-1.6-8.2-2.9-12.4c-1.7-0.1-2.9,0.8-4.3,1.3
			c-20.1,8.3-40.6,14.6-62.2,17.8c-34.8,5.2-68.9,2.3-102.2-8.9c-9.3-3.1-18.4-6.7-27.3-10.8c-1.2-0.6-2.4-1.4-4.3-1.4
			c-0.4,4.8-0.7,9.7-1.1,14.7c-0.8,13.3-1.1,26.8-1.1,40.2c0.1,43.2,0.1,86.3,0.1,129.4c0,35.7-0.1,71.3-0.5,107
			c-0.1,11.3,0.2,22.7-1.3,34c-5.3,39-32.8,68.8-70.8,78.5c-56.2,14.3-109.7-25.7-117.9-78.6c-5.4-35.1,7.7-63.1,35.7-84.4
			c15.5-11.8,33.6-18.2,52.8-21.2C-698.5,1047.6-696.8,1047.3-694.4,1047z"/>
	</g>
	<g id="tentacle_right">
		<path id="XMLID_85_" class="st0" d="M-19.6,957c0,4.4,0,9,0,13.5c0,20.3-7.5,38-20,53.6c-17.6,21.9-40.9,33-68.9,34
			c-24.2,0.8-46.2-5.7-65.4-20.6c-18.6-14.4-29.1-33.6-32-57c-3-25.3-2.9-50.6-2.4-76c0.2-10.3,0-20.6-2.6-30.5
			c-5.1-19.1-17.1-32.6-34.6-41.1c-7.7-3.7-15.2-7.9-22.6-12c-11.2-6.3-17.2-15.8-16.2-28.7c1-12.3,7.8-20.4,19-25.5
			c14.3-6.4,27.4-14.7,38.2-26.1c15-16,20.6-35.1,18.8-56.6c-1.1-13.3-1.7-26.7-1-40.2c0.6-10.8,0.7-21.8,2.4-32.6
			c6.5-39.8,35-70.2,71.2-78.5C-88,521.6-34.1,548.7-21.5,602c1.2,4.9,1.6,9.9,1.6,14.8c0,4.8,0,9.7-0.1,14.6
			c-0.5,25.6-11.2,46.2-30.3,62.7c-14.7,12.5-32.2,19.1-51.1,22.2c-0.6,0.1-1.2,0.1-1.8,0.2c-9.4,1.3-7.6,2.2-10.5-6.5
			c-0.5-1.6-0.8-3.4-1.2-5.1c-1.6-8.3,1.2-15,7.9-20c4.4-3.2,9.5-5.3,14.7-7.1c6.3-2.2,12-5.1,17.2-9.3c18-14.7,23.6-33.7,19-55.9
			c-1.1-5.5-3.1-10.7-5.7-15.8c-9-18-23.9-27.7-43.7-30.3c-8.5-1.1-17.1-1.1-25.5,1.4c-19.8,6-31.6,20-37.9,39.2
			c-2.6,8.1-3.1,16.5-3.5,24.9c-0.5,10.5-0.4,20.8,0.2,31.3c1.1,19.5,0.8,38.8-4.1,58c-6.4,24.5-19.8,44-40.6,58.4
			c-7,4.8-14.3,8.9-21.9,12.4c-1.3,0.6-2.9,1-4.1,2c0.8,1.6,2.5,1.7,4,2.4c13.6,6.5,26.2,14.3,36.9,25c14.8,14.8,23.6,32.7,27.5,53
			c3,15.8,3.2,31.5,2.3,47.4c-1.1,17.3-0.8,34.5,1.6,51.7c4,28.5,27.3,48.3,56,48.9c27.5,0.6,52.4-17.1,58.2-46.4
			C-51.6,953.2-59,934-77,919c-4.8-4-10.2-7-16-9.5c-4.4-1.9-8.9-3.7-13.1-6c-5.5-2.9-7.7-7.5-7.1-13.5c0.4-4,1.1-8.1,1.7-12
			c0.6-3.7,0.6-3.7,4.3-3.7c40.2,0.1,72.3,24.8,83.5,60C-20.9,941.5-19.2,949.1-19.6,957z"/>
	</g>
	<g id="tentacle_left">
		<path id="XMLID_87_" class="st0" d="M-969.3,954.3c1.6-1.3,1.6-3.2,1.8-5.1c5.4-38.8,34.6-68.4,73.4-74.2
			c4.8-0.7,9.6-1.1,14.4-1.1c2,0,3.1,0.5,3.4,2.6c0.7,5.1,1.7,10.1,1.8,15.3c0.1,4.8-1.9,8.3-6,10.8c-4.4,2.6-9.3,4.6-14,6.5
			c-7.8,3.4-15,7.7-20.9,13.7c-16.6,16.8-21.4,36.9-14.4,59.3c7,22.1,22.2,35.7,45.3,39.3c21.8,3.5,40.8-2.5,55.2-19.8
			c7.1-8.4,11.1-18.4,12.4-29.3c2-16.7,2.4-33.6,1.3-50.4c-1.2-18-0.8-36.1,3.6-53.9c6.6-26.5,21.8-46.9,44.6-61.6
			c6-3.8,12.3-7.3,18.8-10.3c1.2-0.6,2.6-0.8,3.7-2.2c-1-1-2.3-1.3-3.5-1.8c-13.6-6.3-26.1-14-36.8-24.4
			c-14.9-14.7-23.7-32.5-27.9-52.8c-3.8-18.6-3.4-37.4-2.4-56.3c0.8-15.9,1.1-31.9-2.4-47.4c-4-18-13.7-32.2-30.9-40.5
			c-29.5-14.2-66.5-0.2-79,29.8c-6.1,14.6-7.5,29.6-1.9,44.6c5.8,15.4,16.8,25.5,32,31.4c3.4,1.3,6.7,2.5,10,3.8
			c2.2,1,4.2,2.2,6.1,3.4c7.3,4.9,10.5,11.7,8.9,20.4c-0.6,3.4-1.6,6.6-2.6,9.9c-0.6,1.9-1.6,2.8-3.7,2.5
			c-30.1-3.7-56.2-14.9-74.1-40.6c-8.2-11.8-13.2-25-14.3-39.4c0.2-2.8,0.1-5.5-1.8-7.8c0-4.1,0-8.1,0-12.1
			c2.8-15.5,6.3-30.8,15.4-44c16.6-24.4,39.6-38.1,68.7-42.1c50.9-6.7,94.6,28,104,76.8c2.5,12.9,2.6,26,2.9,39.1
			c0.2,13-0.4,25.9-1.3,38.7c-2,26.6,7.6,48.1,28.6,64.5c8.8,6.9,18.3,12.4,28.5,16.7c12.9,5.5,20.1,16.7,19,30.2
			c-0.7,9.6-5.3,17.2-13.5,22.2c-7,4.3-14.2,8.4-21.6,11.9c-3.5,1.7-7,3.5-10.2,5.5c-17.9,11.2-27.2,27.7-29.6,48.3
			c-1.4,12.6-0.4,25.3-0.4,37.8c0.1,21.4-0.1,42.7-3.6,63.9c-3.5,20.7-14,37.4-30.3,50.4c-29.6,23.6-73.1,28.1-106.1,10.7
			c-27.7-14.6-43.3-38.1-48.5-68.7c-0.4-2.2-0.4-4.3-1.8-6.1C-969.3,966.8-969.3,960.5-969.3,954.3z"/>
	</g>
	<g id="eye_ball_right">
		<path id="XMLID_7_" class="st0" d="M-642.2,659.7c-36.7,0-66.5,29.8-66.5,66.5s29.8,66.5,66.5,66.5c36.7,0,66.5-29.8,66.5-66.5
			C-575.7,689.6-605.6,659.7-642.2,659.7z M-642.2,761.1c-19.2,0-34.8-15.6-34.8-34.8c0-19.2,15.6-34.8,34.8-34.8
			c19.2,0,34.8,15.6,34.8,34.8C-607.5,745.5-623,761.1-642.2,761.1z"/>
	</g>
	<g id="eye_ball_left">
		<path id="XMLID_11_" class="st0" d="M-345.4,664.9c-36.7,0-66.5,29.8-66.5,66.5s29.8,66.5,66.5,66.5s66.5-29.8,66.5-66.5
			C-278.9,694.6-308.8,664.9-345.4,664.9z M-345.4,766.2c-19.2,0-34.8-15.6-34.8-34.8c0-19.2,15.6-34.8,34.8-34.8
			c19.2,0,34.8,15.6,34.8,34.8C-310.7,750.7-326.2,766.2-345.4,766.2z"/>
	</g>
	<g id="eyes">
		<circle id="XMLID_16_" class="st0" cx="-644.2" cy="727.6" r="11.4"/>
		<circle id="XMLID_24_" class="st0" cx="-345.2" cy="732" r="11.4"/>
	</g>
	<g id="eyeconnect">
		<rect id="XMLID_84_" x="-602.5" y="719.7" class="st0" width="218.6" height="24.8"/>
	</g>
	<g id="brain_right">
		<path id="XMLID_38_" class="st0" d="M-325.5,499.4c-2.5,2.6-5.5,5.1-9,7c-5.9,3.1-12,4-17.4,3.7c-4.6-0.1-8.8-0.7-12.6-1.8
			c-3,10.5-8.5,17.9-16.6,22.4c-6.1,3.4-12.7,4.4-18.8,4.4c-10.1,0-18.3-3-18.9-3.2l0.1-0.4c-0.1,0-0.1,0.1-0.2,0.1
			c-7.5,6-17,9.1-28.4,9.1c-3.6,0-7.3-0.4-11.3-1c-11.5-1.8-21-9-27.7-15.9c0,27.8,0,53.9,0,71.6c2,5.5,5.8,12.7,12.6,17.6
			c7,4.8,16.1,6.1,26.9,4c-0.5-6.6,1.1-14.6,6.9-23.6l5.8,3.6c-15.4,24.5,4.3,37.8,5.2,38.4l-3.7,5.7c-0.1-0.1-9.3-6.1-12.7-17.3
			c-3.7,0.7-7.3,1.1-10.8,1.1c-8.2,0-15.3-2-21.3-6.3c-3.6-2.4-6.4-5.4-8.8-8.5c0,2.5,0,4.4,0,5.9c0,72.9,78.6,58.8,95.8,26
			c0.1,0,0.4,0,0.5,0.1c3.2-5.7,6.4-13.3,5.9-22.1c-0.5-10.7-6.3-20.8-17-30.1c-4.7,6-11.9,11.3-23.2,14.2l-1.7-6.6
			c31.3-7.9,26-37.2,25.7-38.4l6.6-1.3c0,0.2,2.5,13.6-3.8,26.2c12.6,10.7,19.4,22.7,20.1,35.6c0.4,8.5-1.9,16.2-4.9,22.4
			c13.7-1.9,30.3-13.3,36.8-31.9h-0.1c0.1-0.2,6.7-18.6-1.8-34.3c-5.4-10.1-16-17.1-31.3-20.8l1.6-6.6c17.3,4.1,29.3,12.3,35.7,24.2
			c2.9,5.4,4.3,10.9,4.8,16.1c7-7.2,16-20.1,9.1-32.5C-306.5,539.6-312.5,510-325.5,499.4z"/>
		<path id="XMLID_35_" class="st0" d="M-413.7,405.1c-4.8,14.3-16.6,22.7-23.1,26.6c4.8,9.4,5.7,19.5,5.8,24.8
			c6.7-0.4,14.8,1.6,23.9,7.7l-3.8,5.5c-23.9-16.4-38,2.8-38.5,3.6l-5.5-3.8c0.1-0.1,6.3-8.7,17.2-11.9c0-5.8-1.1-23-12.6-32.7
			c-8.2-7-20.2-8.9-35.6-6c0,25,0,60.6,0,94.8c5.5,7,15.9,17.6,28.6,19.5c14.6,2.2,26.2,0,34.4-6.7c11.9-9.6,13-25.5,13-25.6
			l6.7,0.4c0,0.6-0.8,14.1-10.1,25.1c5.7,1.6,18.8,4,29.1-1.7c6.5-3.6,11.1-10,13.5-19.1c-2.6-1.6-5.1-3.4-7.2-5.7
			c-9.7-10.7-8.7-25.7-8.5-26.3l6.7,0.6c0,0.1-1,12.7,6.9,21.3c1.4,1.6,3.1,2.9,4.9,4l2.5,1.1c0.1,0.1,15.4,6.5,27.8-0.1
			c6.5-3.5,10.6-8.3,12.5-14.9c0.6-2,1-4.1,1.1-6.3c0.2-10.7-3.1-22.5-14-25.4c6.3-22.2-8.8-45.6-27.7-49.9
			c3.8,13.1,3.1,24.2-2.2,33c-9.7,16-30.8,18.3-31.7,18.4l-0.7-6.7c0.2,0,18.6-2,26.6-15.2c4.6-7.7,3.6-16,0.6-30.1
			c-0.5,0,0.5,0,0,0c-1.4-15.3-21-34.8-42.6-30.3C-411.1,384.5-410.5,395.3-413.7,405.1z"/>
		<path id="XMLID_13_" class="st0" d="M-446.1,419.8c2.2,1.9,4.1,4,5.7,6.1c5.5-3.2,16.1-10.7,20.2-23c3.4-10.1,1.8-21.4-4.7-33.9
			c-5.2-8.4-16.1-18.9-31.9-18.9c-19.8,0-29.6,16.2-29.6,37.2c0,3.7,0,12.5,0,24.7C-469.2,409-455.7,411.6-446.1,419.8z"/>
	</g>
	<g id="brain_left">
		<path id="XMLID_63_" class="st0" d="M-633.5,447.5c15.3-4.1,22.8-20.9,23-21.2l1.6-3.6l3.4,2.2c11.1,7.2,21.5,9.5,30.8,6.7
			c14-4.1,21.9-18.4,23.8-22.1c-2.5-4.1-4.6-9.1-5.9-15l6.6-1.6c2.5,10.9,7.2,18.2,13.8,21.4c9.6,4.6,20.6-0.5,20.7-0.5l2.9,6.1
			c-0.4,0.2-6.6,3.1-14.6,3.1c-3.7,0-7.8-0.6-11.9-2.6c-2.6-1.2-5.1-3-7.1-5.1c-2.5,4.3-7.2,11.3-14.4,16.6
			c5.9,9.3,11.8,22.5,7.2,38.4c-2.2,7.6-10.1,14-18.4,17.3c13.8,9.3,25.6,12.3,34.9,9.1c12.1-4.1,16.4-17.8,16.4-17.9l6.5,1.9
			c-0.2,0.7-5.2,17.1-20.7,22.4c-3.1,1.1-6.4,1.6-9.7,1.6c-8.9,0-19-3.6-29.9-10.7c0.7,5.7-0.4,10.9-3.4,15.5
			c-3.4,5.2-8.9,8.9-15.6,11.1c12.3,1.1,26.6,6.6,33.8,25.1c3.8-9.6,11.5-17.7,21.6-21.9c11.8-4.9,24.9-4.2,37.3,1.9
			c0-56.8,0-121.7,0-137.5c0-20.9-9.7-37.2-29.6-37.2c-19.8,0-32,16.7-34.8,24.8c-23.9-10.3-47.4,12.1-47.4,28.4
			c-20.7-2-40.2,20.4-37.8,44C-644.8,449-639.1,448.9-633.5,447.5z"/>
		<path id="XMLID_61_" class="st0" d="M-535.6,530c-10.7,4.6-18.4,14.3-19.8,25.4l-0.6,4.2l-4-1.6c-9-3.5-20.1-2-26.2,1.3
			c-10.5,5.7-17.9,19.2-11.1,36.3c12.3-3.1,24.2,1.8,33.4,13.5c0,0,0.1,0,0.1-0.1c11.2-8.8,26.1-8.1,40.6,1.9l-3.8,5.7
			c-12-8.2-23.9-8.9-32.7-2.2c-8.2,6.4-11.7,18-8.2,27.7l-6.4,2.3c-3.6-10.1-1.3-22,5.4-30.4c-7.7-10.1-17.6-14.3-27.3-11.7
			c-10,2.8-17.7,12.1-18.2,22.4l-6.7-0.4c0.6-11.1,7.6-21.3,17.3-26.3c-7.8-20.1,0.8-37.4,14.2-44.6c5.7-3.1,14.8-5.1,24.1-3.7
			c-8.3-24.1-30.1-24.2-42.8-21.9l-5.7,1.1l1.9-5.4c1.4-4.1,0.5-9.6-2.4-14.8c-3.8-6.7-10.2-11.5-17.3-13
			c-11.4-2.4-23.2,1.7-30.4,5.1c-12.6,11.1-18,39.9,2.4,56.2c-9.5,17.1,11.3,35.1,15.3,37.9c0.5,32.5,30.2,51,47.7,47.7
			c17.1,33,95.8,46.9,95.8-26c0-7.2,0-42.5,0-83.5C-512.3,526.6-524.7,525.4-535.6,530z"/>
		<path id="XMLID_66_" class="st0" d="M-630.4,489.1c8.9,1.8,17.1,7.9,21.8,16.2c1.9,3.4,3.1,6.9,3.6,10.1
			c9.6-0.5,17.7-4.1,21.5-9.9c3.2-4.9,3.4-11.1,0.2-17.8l-1.9-4.1l4.4-0.7c8.4-1.3,18.6-7.6,20.8-14.7c3.1-10.7,1.1-20.9-6.4-32.8
			c-1.9,1-4.1,1.9-6.4,2.5c-10.5,3.1-21.6,1.2-33.3-5.7c-3.4,5.9-11.7,17.8-25.6,21.5c-4,1.1-7.9,1.6-11.8,1.6
			c-2.3,0-4.6-0.1-6.7-0.5c-14.3,4.9-14.6,26.6-10.6,37.8C-652.8,489.6-641.6,486.8-630.4,489.1z"/>
	</g>
	<g id="Layer_9">
	</g>
</g>
</svg>
