<?xml version="1.0" encoding="utf-8"?>
<!-- Generator: Adobe Illustrator 19.0.0, SVG Export Plug-In . SVG Version: 6.00 Build 0)  -->
<svg version="1.1" id="Layer_1" xmlns="http://www.w3.org/2000/svg" xmlns:xlink="http://www.w3.org/1999/xlink" x="0px" y="0px"
	 viewBox="500 390 2000 720" style="enable-background:new 500 390 2000 720;" xml:space="preserve">
<style type="text/css">
	.st0{fill:#1A111B;}
	.st1{fill:#1B8C44;}
	.st2{fill:#294037;}
	.st3{fill:#156139;}
	.st4{fill:#A1BE3F;}
	.st5{fill:#76BF43;}
	.st6{fill:#865F59;}
	.st7{fill:#AF7E7A;}
	.st8{fill:#F89834;}
	.st9{fill:#F26122;}
	.st10{fill:#D62027;}
	.st11{fill:#F07C22;}
	.st12{fill:#C76928;}
	.st13{fill:#7B3E1B;}
	.st14{fill:#A75725;}
	.st15{fill:#563943;}
	.st16{fill:#371820;}
	.st17{fill:#613013;}
	.st18{fill:#190C0C;}
	.st19{fill:#D6AD9B;}
	.st20{fill:#ED1C24;}
	.st21{fill:#F36D21;}
</style>
<g>
	<path id="XMLID_223_" class="st0" d="M2133.4,1174.9c0.6-12.5,1-25,1-37.6c0-381-308.8-689.8-689.8-689.8s-689.8,308.8-689.8,689.8
		c0,12.6,0.4,25.1,1,37.6H2133.4z"/>
	<g id="XMLID_385_">
		<g id="XMLID_390_">
			<path id="XMLID_222_" class="st1" d="M2206,1164.5c-6.4,0-11.6-5.2-11.6-11.6c0-24.2,12.6-36.7,22.6-46.9
				c9.2-9.3,15.9-16,15.9-30.6c0-14.6-6.6-21.3-15.9-30.6c-10.1-10.2-22.6-22.7-22.6-46.9c0-24.2,12.6-36.7,22.6-46.9
				c9.2-9.3,15.9-16,15.9-30.6c0-14.6-6.6-21.3-15.9-30.6c-10.1-10.2-22.6-22.7-22.6-46.9s12.6-36.7,22.6-46.9
				c9.2-9.3,15.9-16,15.9-30.6c0-6.4,5.2-11.6,11.6-11.6c6.4,0,11.6,5.2,11.6,11.6c0,24.2-12.6,36.7-22.6,46.9
				c-9.2,9.3-15.9,16-15.9,30.6s6.6,21.3,15.9,30.6c10.1,10.2,22.6,22.7,22.6,46.9c0,24.2-12.6,36.7-22.6,46.9
				c-9.2,9.3-15.9,16-15.9,30.6c0,14.6,6.6,21.3,15.9,30.6c10.1,10.2,22.6,22.7,22.6,46.9c0,24.2-12.6,36.7-22.6,46.9
				c-9.2,9.3-15.9,16-15.9,30.6C2217.5,1159.3,2212.3,1164.5,2206,1164.5z"/>
		</g>
		<g id="XMLID_388_">
			<path id="XMLID_221_" class="st1" d="M2138.2,1164.5c-6.4,0-11.6-5.2-11.6-11.6c0-24.2,12.6-36.7,22.6-46.9
				c9.2-9.3,15.9-16,15.9-30.6c0-14.6-6.6-21.3-15.9-30.6c-10.1-10.2-22.6-22.7-22.6-46.9c0-24.2,12.6-36.7,22.6-46.9
				c9.2-9.3,15.9-16,15.9-30.6c0-14.6-6.6-21.3-15.9-30.6c-10.1-10.2-22.6-22.7-22.6-46.9s12.6-36.7,22.6-46.9
				c9.2-9.3,15.9-16,15.9-30.6c0-6.4,5.2-11.6,11.6-11.6s11.6,5.2,11.6,11.6c0,24.2-12.6,36.7-22.6,46.9c-9.2,9.3-15.9,16-15.9,30.6
				s6.6,21.3,15.9,30.6c10.1,10.2,22.6,22.7,22.6,46.9c0,24.2-12.6,36.7-22.6,46.9c-9.2,9.3-15.9,16-15.9,30.6
				c0,14.6,6.6,21.3,15.9,30.6c10.1,10.2,22.6,22.7,22.6,46.9c0,24.2-12.6,36.7-22.6,46.9c-9.2,9.3-15.9,16-15.9,30.6
				C2149.8,1159.3,2144.6,1164.5,2138.2,1164.5z"/>
		</g>
		<g id="XMLID_386_">
			<path id="XMLID_220_" class="st1" d="M2074.3,1164.5c-6.4,0-11.6-5.2-11.6-11.6c0-24.2,12.6-36.7,22.6-46.9
				c9.2-9.3,15.9-16,15.9-30.6c0-14.6-6.6-21.3-15.9-30.6c-10.1-10.2-22.6-22.7-22.6-46.9c0-24.2,12.6-36.7,22.6-46.9
				c9.2-9.3,15.9-16,15.9-30.6c0-14.6-6.6-21.3-15.9-30.6c-10.1-10.2-22.6-22.7-22.6-46.9s12.6-36.7,22.6-46.9
				c9.2-9.3,15.9-16,15.9-30.6c0-6.4,5.2-11.6,11.6-11.6c6.4,0,11.6,5.2,11.6,11.6c0,24.2-12.6,36.7-22.6,46.9
				c-9.2,9.3-15.9,16-15.9,30.6s6.6,21.3,15.9,30.6c10.1,10.2,22.6,22.7,22.6,46.9c0,24.2-12.6,36.7-22.6,46.9
				c-9.2,9.3-15.9,16-15.9,30.6c0,14.6,6.6,21.3,15.9,30.6c10.1,10.2,22.6,22.7,22.6,46.9c0,24.2-12.6,36.7-22.6,46.9
				c-9.2,9.3-15.9,16-15.9,30.6C2085.8,1159.3,2080.7,1164.5,2074.3,1164.5z"/>
		</g>
	</g>
	<g id="XMLID_371_">
		<g id="XMLID_376_">
			<path id="XMLID_214_" class="st2" d="M1992,1134.6c-3.3,0-6-2.6-6-6c0-16,3.3-24.1,6.4-31.9c2.9-7.1,5.5-13.8,5.5-27.4
				s-2.7-20.4-5.5-27.4c-3.1-7.8-6.4-15.9-6.4-31.9s3.3-24.1,6.4-31.9c2.9-7.1,5.5-13.8,5.5-27.4c0-13.7-2.7-20.4-5.5-27.4
				c-3.1-7.8-6.4-15.9-6.4-31.9c0-16,3.3-24.1,6.4-31.9c2.9-7.1,5.5-13.8,5.5-27.4c0-3.3,2.6-6,6-6c3.3,0,6,2.6,6,6
				c0,16-3.3,24.1-6.4,31.9c-2.9,7.1-5.5,13.8-5.5,27.4c0,13.7,2.7,20.4,5.5,27.4c3.1,7.8,6.4,15.9,6.4,31.9s-3.3,24.1-6.4,31.9
				c-2.9,7.1-5.5,13.8-5.5,27.4c0,13.7,2.7,20.4,5.5,27.4c3.1,7.8,6.4,15.9,6.4,31.9c0,16-3.3,24.1-6.4,31.9
				c-2.9,7.1-5.5,13.8-5.5,27.4C1997.9,1132,1995.3,1134.6,1992,1134.6z"/>
		</g>
		<path id="XMLID_213_" class="st2" d="M1984.2,861.5c7.4,8.4,4,23.5,4,23.5s-15.4,1.6-22.9-6.8c-7.4-8.4-4-23.5-4-23.5
			S1976.9,853.1,1984.2,861.5z"/>
		<path id="XMLID_212_" class="st2" d="M2008,916.6c-7.4,8.4-4,23.5-4,23.5s15.4,1.6,22.9-6.8c7.4-8.4,4-23.5,4-23.5
			S2015.4,908.3,2008,916.6z"/>
		<path id="XMLID_211_" class="st2" d="M1984.2,994.8c7.4,8.4,4,23.5,4,23.5s-15.4,1.6-22.9-6.8c-7.4-8.4-4-23.5-4-23.5
			S1976.9,986.4,1984.2,994.8z"/>
		<path id="XMLID_210_" class="st2" d="M2008,1050c-7.4,8.4-4,23.5-4,23.5s15.4,1.6,22.9-6.8c7.4-8.4,4-23.5,4-23.5
			S2015.4,1041.7,2008,1050z"/>
	</g>
	<g id="XMLID_364_">
		<g id="XMLID_369_">
			<path id="XMLID_209_" class="st2" d="M2348.8,1172.1c-2.6,0-4.6-2.1-4.6-4.6c0-12.3,2.5-18.5,5-24.5c2.2-5.4,4.2-10.6,4.2-21
				c0-10.5-2.1-15.7-4.2-21c-2.4-6-5-12.2-5-24.5c0-12.3,2.5-18.5,5-24.5c2.2-5.4,4.2-10.6,4.2-21s-2.1-15.7-4.2-21.1
				c-2.4-6-5-12.2-5-24.5c0-12.3,2.5-18.5,5-24.5c2.2-5.4,4.2-10.6,4.2-21.1c0-2.6,2.1-4.6,4.6-4.6c2.6,0,4.6,2.1,4.6,4.6
				c0,12.3-2.5,18.5-5,24.5c-2.2,5.4-4.2,10.6-4.2,21.1c0,10.5,2.1,15.7,4.2,21.1c2.4,6,5,12.2,5,24.5c0,12.3-2.5,18.5-5,24.5
				c-2.2,5.4-4.2,10.6-4.2,21.1s2.1,15.7,4.2,21c2.4,6,5,12.2,5,24.5c0,12.3-2.5,18.5-5,24.5c-2.2,5.4-4.2,10.6-4.2,21
				C2353.4,1170,2351.3,1172.1,2348.8,1172.1z"/>
		</g>
		<path id="XMLID_208_" class="st2" d="M2342.9,962.3c5.7,6.4,3.1,18.1,3.1,18.1s-11.8,1.2-17.6-5.2c-5.7-6.4-3-18.1-3-18.1
			S2337.2,955.9,2342.9,962.3z"/>
		<path id="XMLID_207_" class="st2" d="M2361.1,1004.7c-5.7,6.4-3.1,18.1-3.1,18.1s11.8,1.2,17.6-5.2c5.7-6.4,3-18.1,3-18.1
			S2366.8,998.3,2361.1,1004.7z"/>
		<path id="XMLID_206_" class="st2" d="M2342.9,1064.7c5.7,6.4,3.1,18.1,3.1,18.1s-11.8,1.2-17.6-5.2c-5.7-6.4-3-18.1-3-18.1
			S2337.2,1058.2,2342.9,1064.7z"/>
		<path id="XMLID_205_" class="st2" d="M2361.1,1107.1c-5.7,6.4-3.1,18.1-3.1,18.1s11.8,1.2,17.6-5.2c5.7-6.4,3-18.1,3-18.1
			S2366.8,1100.7,2361.1,1107.1z"/>
	</g>
	<g id="XMLID_357_">
		<path id="XMLID_204_" class="st3" d="M846.4,936.8L820,963.2v-98.7l33.8-33.8c2-2,2-5.4,0-7.4c-2-2-5.4-2-7.4,0L820,849.8V772
			c0-2.9-2.3-5.2-5.2-5.2s-5.2,2.3-5.2,5.2v147.2l-25.3-25.3c-2-2-5.4-2-7.4,0s-2,5.4,0,7.4l32.6,32.6v81.4l-28.2-28.2
			c-2-2-5.4-2-7.4,0s-2,5.4,0,7.4l35.5,35.5v102c0,2.9,2.3,5.2,5.2,5.2s5.2-2.3,5.2-5.2V977.8l33.8-33.8c2-2,2-5.4,0-7.4
			C851.7,934.8,848.5,934.8,846.4,936.8z"/>
		<path id="XMLID_203_" class="st4" d="M786.9,986.2c0,8.6-7,15.6-15.6,15.6c-8.6,0-15.6-7-15.6-15.6c0-8.6,7-15.6,15.6-15.6
			C779.9,970.6,786.9,977.5,786.9,986.2z"/>
		<path id="XMLID_202_" class="st4" d="M786.9,889.7c0,8.6-7,15.6-15.6,15.6c-8.6,0-15.6-7-15.6-15.6c0-8.6,7-15.6,15.6-15.6
			C779.9,874.1,786.9,881.1,786.9,889.7z"/>
		<path id="XMLID_201_" class="st4" d="M872.5,934.6c0,8.6-7,15.6-15.6,15.6c-8.6,0-15.6-7-15.6-15.6s7-15.6,15.6-15.6
			C865.6,919,872.5,926.1,872.5,934.6z"/>
		<path id="XMLID_200_" class="st4" d="M872.5,822.6c0,8.6-7,15.6-15.6,15.6c-8.6,0-15.6-7-15.6-15.6c0-8.6,7-15.6,15.6-15.6
			C865.6,807,872.5,814,872.5,822.6z"/>
		<path id="XMLID_199_" class="st4" d="M830.4,759c0,8.6-7,15.6-15.6,15.6s-15.6-7-15.6-15.6c0-8.6,7-15.6,15.6-15.6
			C823.4,743.4,830.4,750.3,830.4,759z"/>
	</g>
	<g id="XMLID_350_">
		<path id="XMLID_198_" class="st3" d="M1909.2,1009.3l-13.8,13.8v-51.5l17.7-17.6c1-1,1-2.8,0-3.8s-2.8-1-3.8,0l-13.8,13.8v-40.6
			c0-1.5-1.2-2.7-2.7-2.7c-1.5,0-2.7,1.2-2.7,2.7v76.9l-13.2-13.2c-1-1-2.8-1-3.8,0s-1,2.8,0,3.8l17,17v42.5l-14.7-14.7
			c-1-1-2.8-1-3.8,0s-1,2.8,0,3.8l18.6,18.6v53.3c0,1.5,1.2,2.7,2.7,2.7c1.5,0,2.7-1.2,2.7-2.7v-80.5l17.7-17.6c1-1,1-2.8,0-3.8
			C1912,1008.2,1910.3,1008.2,1909.2,1009.3z"/>
		<circle id="XMLID_197_" class="st4" cx="1870" cy="1035" r="8.2"/>
		<circle id="XMLID_196_" class="st4" cx="1870" cy="984.6" r="8.2"/>
		<circle id="XMLID_195_" class="st4" cx="1914.8" cy="1008.2" r="8.2"/>
		<circle id="XMLID_194_" class="st4" cx="1914.8" cy="949.7" r="8.2"/>
		<path id="XMLID_193_" class="st4" d="M1900.9,916.4c0,4.5-3.7,8.2-8.2,8.2c-4.5,0-8.2-3.7-8.2-8.2s3.7-8.2,8.2-8.2
			C1897.2,908.3,1900.9,911.9,1900.9,916.4z"/>
	</g>
	<g id="XMLID_345_">
		<g id="XMLID_348_">
			<path id="XMLID_192_" class="st5" d="M631.7,1159.2c-6,0-10.9-4.9-10.9-10.9c0-29,5.9-43.7,11.6-57.9c5.2-12.9,10.1-25,10.1-49.8
				c0-24.8-4.9-37-10.1-49.8c-5.7-14.2-11.6-28.9-11.6-57.9s5.9-43.7,11.6-57.9c5.2-12.9,10.1-25,10.1-49.8c0-24.8-4.9-37-10.1-49.8
				c-5.7-14.2-11.6-28.9-11.6-57.9c0-29,5.9-43.7,11.6-57.9c5.2-12.9,10.1-25,10.1-49.8c0-6,4.9-10.9,10.9-10.9
				c6,0,10.9,4.9,10.9,10.9c0,29-5.9,43.8-11.6,57.9c-5.2,12.9-10.1,25-10.1,49.8c0,24.8,4.9,37,10.1,49.8
				c5.7,14.2,11.6,28.9,11.6,57.9s-5.9,43.7-11.6,57.9c-5.2,12.9-10.1,25-10.1,49.8c0,24.8,4.9,37,10.1,49.8
				c5.7,14.2,11.6,28.9,11.6,57.9c0,29-5.9,43.7-11.6,57.9c-5.2,12.9-10.1,25-10.1,49.8C642.6,1154.3,637.7,1159.2,631.7,1159.2z"/>
		</g>
		<g id="XMLID_346_">
			<path id="XMLID_191_" class="st5" d="M700,1159.2c-6,0-10.9-4.9-10.9-10.9c0-29,5.9-43.7,11.6-57.9c5.2-12.9,10.1-25,10.1-49.8
				c0-24.8-4.9-37-10.1-49.8c-5.7-14.2-11.6-28.9-11.6-57.9s5.9-43.7,11.6-57.9c5.2-12.9,10.1-25,10.1-49.8c0-24.8-4.9-37-10.1-49.8
				c-5.7-14.2-11.6-28.9-11.6-57.9c0-29,5.9-43.7,11.6-57.9c5.2-12.9,10.1-25,10.1-49.8c0-6,4.9-10.9,10.9-10.9
				c6,0,10.9,4.9,10.9,10.9c0,29-5.9,43.8-11.6,57.9c-5.2,12.9-10.1,25-10.1,49.8c0,24.8,4.9,37,10.1,49.8
				c5.7,14.2,11.6,28.9,11.6,57.9s-5.9,43.7-11.6,57.9c-5.2,12.9-10.1,25-10.1,49.8c0,24.8,4.9,37,10.1,49.8
				c5.7,14.2,11.6,28.9,11.6,57.9c0,29-5.9,43.7-11.6,57.9c-5.2,12.9-10.1,25-10.1,49.8C710.9,1154.3,706,1159.2,700,1159.2z"/>
		</g>
	</g>
	<path id="XMLID_190_" class="st6" d="M1853.7,1118.7c0.4-2,0.6-4.1,0.6-6.2v-27.4c0-18.5-15-33.4-33.4-33.4h-75
		c-18.5,0-33.4,15-33.4,33.4v27.4c0,2.1,0.2,4.2,0.6,6.2H1853.7z"/>
	<path id="XMLID_189_" class="st7" d="M1933.8,1118.7c0.1-0.7,0.2-1.4,0.2-2.1c0-10.1-8.2-18.3-18.3-18.3H1849
		c-10.1,0-18.3,8.2-18.3,18.3c0,0.7,0.1,1.4,0.2,2.1H1933.8z"/>
	<g id="XMLID_301_">
		
			<rect id="XMLID_188_" x="975.6" y="691.5" transform="matrix(-0.8051 0.5931 -0.5931 -0.8051 2581.8101 595.1293)" class="st8" width="435.1" height="60.4"/>
		<path id="XMLID_336_" class="st9" d="M1035.9,875.1l138.1,187.5l350.3-258L1386.2,617L1035.9,875.1z M1313.8,898.9l-58.6,43.2
			l-76.6-103.9l58.6-43.2L1313.8,898.9z M1250.2,785.5l58.6-43.2l76.6,103.9l-58.6,43.2L1250.2,785.5z M1457,793.4l-58.7,43.2
			l-76.6-103.9l58.7-43.2L1457,793.4z M1106.9,891l58.7-43.3l76.6,103.9l-58.7,43.3L1106.9,891z"/>
		<path id="XMLID_182_" class="st10" d="M1028.1,881.1c3.4,4.7,10.1,5.7,14.7,2.2l354-260.8c4.7-3.4,5.7-10.1,2.2-14.7l0,0
			c-3.4-4.7-10.1-5.7-14.7-2.2l-354,260.8C1025.7,869.9,1024.7,876.4,1028.1,881.1L1028.1,881.1z"/>
		<path id="XMLID_181_" class="st11" d="M999.2,841.9c-9.6-22.8-2.9-50,17.9-65.3l285.5-210.3c20.8-15.3,48.8-13.7,67.7,2.2
			L999.2,841.9z"/>
		<g id="XMLID_331_">
			<polygon id="XMLID_180_" class="st12" points="1626.5,689.1 1666,659.9 1691,693.8 1651.5,722.9 			"/>
			<polygon id="XMLID_179_" class="st10" points="1609.8,701.3 1682.8,647.6 1666.9,626.1 1594,679.9 			"/>
		</g>
		<path id="XMLID_178_" class="st13" d="M1175.5,1187.6l552.4-407c0.6,0.9,1.4,1.7,2,2.6l49.4,67c52.7,71.5,37.4,172.2-34.1,224.9
			L1453.4,1290L1175.5,1187.6z"/>
		<path id="XMLID_177_" class="st14" d="M1091.2,1146l693-510.6c27.4,37.1,19.4,89.4-17.7,116.9l-601,442.7L1091.2,1146z"/>
		<g id="XMLID_327_">
			<path id="XMLID_176_" class="st14" d="M1786.2,845.1c15.7,21.3,25.3,45.2,29.3,69.6l-513.9,378.6l-93.9-29l575.2-423.8
				L1786.2,845.1z"/>
		</g>
		
			<rect id="XMLID_175_" x="1402.4" y="1125.1" transform="matrix(0.8051 -0.5931 0.5931 0.8051 -406.2622 1070.0109)" class="st11" width="45.4" height="56.3"/>
		
			<rect id="XMLID_174_" x="1409.7" y="1133.4" transform="matrix(0.8051 -0.5931 0.5931 0.8051 -406.2986 1069.998)" class="st15" width="30.8" height="39.8"/>
		<path id="XMLID_173_" class="st16" d="M1417.3,1158.9c3.1,4.3,9.2,5.2,13.4,2c4.3-3.1,5.2-9.2,2.1-13.4c-3.1-4.3-9.2-5.2-13.4-2.1
			C1415.1,1148.6,1414.2,1154.6,1417.3,1158.9z"/>
		<g id="XMLID_321_">
			<path id="XMLID_172_" class="st11" d="M1325.4,1275.7l490.1-361.1c1.1,6.7,1.8,13.4,2,20.2l-470.7,346.8L1325.4,1275.7z"/>
			<polygon id="XMLID_171_" class="st11" points="1782.8,840.6 1224.6,1251.8 1211.4,1239.9 1772.4,826.5 			"/>
		</g>
		<polygon id="XMLID_170_" class="st8" points="1772.6,619.6 1036.3,1162 1075.3,1157.7 1784.3,635.4 		"/>
		<path id="XMLID_169_" class="st17" d="M1313,1035.4c6.7,9.1,19.5,11,28.6,4.3c9.1-6.7,11-19.5,4.3-28.6c-6.7-9.1-19.5-11-28.6-4.3
			C1308.2,1013.5,1306.2,1026.4,1313,1035.4z"/>
		<polygon id="XMLID_168_" class="st11" points="1549.8,1096.2 1586.4,1069.4 1553,1024 1516.5,1051 		"/>
		<polygon id="XMLID_167_" class="st17" points="1550.8,1085.3 1575.6,1067 1552,1035 1527.3,1053.2 		"/>
		<path id="XMLID_166_" class="st18" d="M1543.6,1065.8c3.1,4.3,9.2,5.2,13.4,2c4.3-3.1,5.2-9.2,2.1-13.4c-3.1-4.3-9.2-5.2-13.4-2.1
			C1541.4,1055.5,1540.5,1061.6,1543.6,1065.8z"/>
		<path id="XMLID_165_" class="st17" d="M1439.3,942.4c6.7,9.1,19.5,11,28.6,4.3c9.1-6.7,11-19.5,4.3-28.6
			c-6.7-9.1-19.5-11-28.6-4.3C1434.5,920.5,1432.5,933.3,1439.3,942.4z"/>
		<polygon id="XMLID_164_" class="st11" points="1690.5,992.6 1727.1,965.7 1693.7,920.3 1657.2,947.3 		"/>
		
			<rect id="XMLID_163_" x="1676.6" y="936.6" transform="matrix(0.8051 -0.5932 0.5932 0.8051 -237.5589 1190.1182)" class="st17" width="30.8" height="39.8"/>
		<path id="XMLID_162_" class="st18" d="M1684.4,962.2c3.1,4.3,9.2,5.2,13.4,2c4.2-3.1,5.2-9.2,2-13.4c-3.1-4.3-9.2-5.2-13.4-2.1
			C1682.1,951.8,1681.2,957.9,1684.4,962.2z"/>
		<path id="XMLID_161_" class="st17" d="M1580,838.7c6.7,9.1,19.5,11,28.6,4.3c9.1-6.7,11-19.5,4.3-28.6c-6.7-9.1-19.5-11-28.6-4.3
			C1575.2,816.8,1573.2,829.6,1580,838.7z"/>
		<path id="XMLID_160_" class="st18" d="M1321.7,1029c3.1,4.3,9.2,5.2,13.4,2.1c4.3-3.1,5.2-9.2,2-13.4c-3.1-4.3-9.2-5.2-13.4-2.1
			C1319.4,1018.7,1318.5,1024.7,1321.7,1029z"/>
		<path id="XMLID_159_" class="st18" d="M1448,936c3.1,4.3,9.2,5.2,13.4,2.1c4.3-3.1,5.2-9.2,2.1-13.4c-3.1-4.3-9.2-5.2-13.4-2.1
			C1445.7,925.7,1444.9,931.7,1448,936z"/>
		<path id="XMLID_158_" class="st18" d="M1588.7,832.3c3.1,4.3,9.2,5.2,13.4,2.1c4.3-3.1,5.2-9.2,2-13.4c-3.1-4.3-9.2-5.2-13.4-2.1
			C1586.4,822,1585.6,828,1588.7,832.3z"/>
		
			<rect id="XMLID_157_" x="1261.2" y="1229.1" transform="matrix(0.8051 -0.5931 0.5931 0.8051 -495.5003 1006.5066)" class="st11" width="45.4" height="56.3"/>
		<polygon id="XMLID_156_" class="st15" points="1283.3,1282.4 1308.1,1264.2 1284.4,1232.1 1259.6,1250.4 		"/>
		<path id="XMLID_155_" class="st16" d="M1276.1,1263c3.1,4.3,9.2,5.2,13.4,2c4.3-3.1,5.2-9.2,2-13.4c-3.1-4.3-9.2-5.2-13.4-2.1
			C1273.8,1252.7,1273,1258.7,1276.1,1263z"/>
		<path id="XMLID_154_" class="st15" d="M1171.7,1139.5c6.7,9.1,19.5,11,28.6,4.3s11-19.5,4.3-28.6c-6.7-9.1-19.5-11-28.6-4.3
			C1166.9,1117.6,1165,1130.5,1171.7,1139.5z"/>
		<path id="XMLID_153_" class="st16" d="M1180.4,1133.1c3.1,4.3,9.2,5.2,13.4,2c4.2-3.1,5.2-9.2,2-13.4c-3.1-4.3-9.2-5.2-13.4-2.1
			C1178.2,1122.8,1177.2,1128.9,1180.4,1133.1z"/>
		<polygon id="XMLID_152_" class="st10" points="934.3,1165.9 942.6,1159.7 1010.5,1109.7 1018.8,1103.7 1086.7,1053.6 1095,1047.5 
			1155.9,1002.6 1162.7,997.6 1162.9,997.4 1171.1,991.4 1171.2,991.4 1239,941.4 1247.3,935.3 1315.2,885.3 1323.5,879.1 
			1391.3,829.1 1399.7,823 1467.6,773 1475.9,766.8 1543.8,716.8 1552.1,710.7 1560,721.5 1586.2,756.9 1577.9,763.1 1551.7,727.6 
			1483.8,777.6 1510,813.1 1501.7,819.2 1475.5,783.7 1407.6,833.8 1433.7,869.2 1425.4,875.4 1399.3,839.9 1331.4,889.9 
			1357.5,925.4 1349.2,931.5 1323.1,896 1255.2,946 1281.4,981.5 1273,987.7 1246.9,952.2 1179.1,1002.1 1205.3,1037.5 
			1205.1,1037.7 1197,1043.7 1196.8,1043.8 1170.7,1008.3 1163.8,1013.4 1102.9,1058.2 1129.1,1093.7 1120.7,1099.8 1094.6,1064.3 
			1026.7,1114.4 1052.8,1149.8 1044.5,1156 1018.4,1120.5 950.5,1170.5 976.6,1206 968.3,1212.1 942.2,1176.6 		"/>
	</g>
	<g id="XMLID_298_">
		<path id="XMLID_151_" class="st6" d="M1248.9,1118.7v-3.2c0-31.1-25.2-56.3-56.3-56.3H897.7c-31.1,0-56.3,25.2-56.3,56.3v3.2
			H1248.9z"/>
		<path id="XMLID_150_" class="st19" d="M1163.1,1118.7c1.2-3.3,1.9-6.7,1.9-10.4c0-16.3-13.3-29.6-29.6-29.6H905.6
			c-16.3,0-29.6,13.3-29.6,29.6c0,3.7,0.7,7.2,1.9,10.4H1163.1z"/>
	</g>
	<path id="XMLID_115_" class="st19" d="M1783.1,1118.7c0.8-2.4,1.3-5,1.3-7.7c0-13.4-10.9-24.3-24.4-24.3h-100.4
		c-13.4,0-24.3,10.9-24.3,24.3c0,2.6,0.5,5.3,1.3,7.7H1783.1z"/>
	<g id="XMLID_230_">
		<path id="XMLID_114_" class="st20" d="M964.9,935.7c13,0,10.7,40.3,21.6,47.4c10.2,6.6,43.5-11.1,48.4,0
			c5.1,11.8-31.3,25.4-35,37.7c-3.5,11.7,18.2,41,8.2,48.2c-9.9,7.2-31-22.7-43.3-22.7s-33.4,29.9-43.3,22.7
			c-9.9-7.2,11.8-36.5,8.2-48.2c-3.7-12.3-40.2-25.8-35-37.7c4.8-11.1,38.2,6.6,48.4,0C954.2,976,951.9,935.7,964.9,935.7z"/>
		<g id="XMLID_231_">
			<circle id="XMLID_113_" class="st21" cx="964.9" cy="1011" r="17.8"/>
			<circle id="XMLID_112_" class="st21" cx="964.9" cy="976" r="6"/>
			<path id="XMLID_111_" class="st21" d="M969.1,957c0,2.3-1.9,4.2-4.2,4.2c-2.3,0-4.2-1.9-4.2-4.2c0-2.3,1.9-4.2,4.2-4.2
				C967.2,952.8,969.1,954.7,969.1,957z"/>
			<path id="XMLID_110_" class="st21" d="M1002.3,1003.4c-3,1.4-6.6,0.1-8-3c-1.4-3-0.1-6.6,3-8c3-1.4,6.6-0.1,8,3
				C1006.6,998.5,1005.3,1002.1,1002.3,1003.4z"/>
			<path id="XMLID_109_" class="st21" d="M1018.8,993.8c-2.1,1-4.6,0.1-5.6-2.1c-1-2.1-0.1-4.6,2.1-5.6c2.1-1,4.6-0.1,5.6,2.1
				S1020.9,992.9,1018.8,993.8z"/>
			<path id="XMLID_108_" class="st21" d="M928.8,1003.4c3,1.4,6.6,0.1,8-3c1.4-3,0.1-6.6-3-8c-3-1.4-6.6-0.1-8,3
				C924.4,998.5,925.8,1002.1,928.8,1003.4z"/>
			<path id="XMLID_107_" class="st21" d="M912.3,993.8c2.1,1,4.6,0.1,5.6-2.1c1-2.1,0.1-4.6-2.1-5.6c-2.1-1-4.6-0.1-5.6,2.1
				S910.2,992.9,912.3,993.8z"/>
			<path id="XMLID_106_" class="st21" d="M946.5,1043c1.8-2.9,0.8-6.6-2-8.2c-2.9-1.8-6.6-0.8-8.2,2c-1.8,2.8-0.8,6.6,2,8.2
				C941.1,1046.6,944.8,1045.8,946.5,1043z"/>
			<path id="XMLID_105_" class="st21" d="M935.1,1058.2c1.2-2,0.6-4.6-1.4-5.8s-4.6-0.6-5.8,1.4s-0.6,4.6,1.4,5.8
				C931.3,1060.8,933.9,1060.2,935.1,1058.2z"/>
			<path id="XMLID_104_" class="st21" d="M982.9,1043.3c-1.8-2.8-1-6.5,1.7-8.3c2.8-1.8,6.5-1,8.3,1.7c1.8,2.8,1,6.5-1.7,8.3
				C988.4,1046.8,984.8,1046,982.9,1043.3z"/>
			<path id="XMLID_103_" class="st21" d="M994.9,1058.1c-1.3-1.9-0.7-4.6,1.2-5.8c1.9-1.3,4.6-0.7,5.8,1.2c1.3,1.9,0.7,4.6-1.2,5.8
				C998.8,1060.6,996.2,1060.1,994.9,1058.1z"/>
		</g>
	</g>
</g>
</svg>
