<?xml version="1.0" encoding="utf-8"?>
<!-- Generator: Adobe Illustrator 19.0.0, SVG Export Plug-In . SVG Version: 6.00 Build 0)  -->
<svg version="1.1" id="Layer_1" xmlns="http://www.w3.org/2000/svg" xmlns:xlink="http://www.w3.org/1999/xlink" x="0px" y="0px"
	 viewBox="0 0 1000 1000" style="enable-background:new 0 0 1000 1000;" xml:space="preserve">
<style type="text/css">
	.st0{fill:#D22027;}
	.st1{fill:#B41F24;}
	.st2{fill:#9B3B21;}
	.st3{fill:#EBEFF0;}
	.st4{fill:#FFFFFF;}
	.st5{fill:#842E1A;}
	.st6{fill:#D12028;}
	.st7{fill:#F2CD1A;}
	.st8{fill:#08172E;}
	.st9{fill:#D1B18D;}
	.st10{fill:#EDCFB1;}
	.st11{fill:#1992AF;}
	.st12{fill:#161E21;}
	.st13{fill:#F3725C;}
	.st14{fill:#BABB33;}
	.st15{fill:#959335;}
	.st16{fill:#719F40;}
	.st17{fill:#4F6D32;}
	.st18{fill:#C88A2B;}
	.st19{fill:#5F210E;}
</style>
<g id="XMLID_74_">
	<g id="XMLID_77_">
		<g id="XMLID_78_">
			<g id="XMLID_173_">
				<path id="XMLID_73_" class="st0" d="M422.7,251.1l-33.2,15.8c0,0-43.5-8-73.9-35.3c3.2-2.4,6.3-4.9,8.3-7.2
					c3.1-3.4,6-1.9,1.5-5.6c-3.5-2.9-14.2-2.8-23.5-2.3c-11-15.1-17.5-34.5-14.5-59.1c0,0,23.3,1,48.2,16.8c2.7,1.7,5.9,3,9.3,6h0
					c1.2,7,3,14.2,5.3,18.9c1.1-3.4,2.6-6.7,4.1-10.4C383,212.1,422.7,251.1,422.7,251.1z"/>
				<path id="XMLID_72_" class="st1" d="M294,167.2c0,0,86.4,96.3,133.7,103L294,167.2z"/>
			</g>
			<g id="XMLID_171_">
				<path id="XMLID_71_" class="st2" d="M551.4,597.7C198.2,588,239.4,792.1,239.4,792.1l297.6,1.3v0.1l15-0.1l15,0.1v-0.1l297-1.3
					C864,792.1,904.7,588,551.4,597.7z"/>
			</g>
			<g id="XMLID_168_">
				<circle id="XMLID_70_" class="st3" cx="129.2" cy="677.3" r="45.4"/>
				<path id="XMLID_69_" class="st4" d="M118.3,647.6c2,1.7,0,7.5-4.6,12.8c-4.5,5.4-9.9,8.4-11.9,6.6c-2-1.7,0-7.4,4.6-12.8
					C110.9,648.9,116.3,645.9,118.3,647.6z"/>
			</g>
			<g id="XMLID_165_">
				<path id="XMLID_68_" class="st3" d="M198.9,569.3c0,14.5-11.1,26.3-24.7,26.3c-13.6,0-24.7-11.8-24.7-26.3
					c0-14.5,11.1-26.3,24.7-26.3C187.9,543,198.9,554.8,198.9,569.3z"/>
				<path id="XMLID_67_" class="st4" d="M168.3,552.1c1.1,1,0,4.3-2.5,7.4c-2.5,3.1-5.4,4.8-6.5,3.8c-1.1-1,0-4.3,2.5-7.4
					C164.3,552.9,167.2,551.1,168.3,552.1z"/>
			</g>
			<g id="XMLID_162_">
				<ellipse id="XMLID_66_" class="st3" cx="884.1" cy="655.8" rx="32.2" ry="34.3"/>
				<path id="XMLID_65_" class="st4" d="M876.4,633.4c1.4,1.3,0,5.6-3.3,9.7c-3.2,4.1-7,6.3-8.4,5c-1.4-1.3,0-5.6,3.3-9.7
					C871.1,634.4,874.9,632.1,876.4,633.4z"/>
			</g>
			<g id="XMLID_79_">
				<g id="XMLID_82_">
					<path id="XMLID_64_" class="st5" d="M330.6,692.8c0.8-4.1,66.8-47.7,100.5-45.3c0,0,9.7,70.9,24.8,59.7
						c15.1-11.2,47.5-58.5,47.5-58.5s68.5,88.4,83.4,73.5l24.9-69.7c0,0,107.1,77.8,110.2,65.1C725,704.9,644,605.2,629.1,604
						c-14.9-1.2-76-13.7-93.4-14.9c-17.4-1.2-38.6-19.9-64.8-12.5c-26.2,7.5-54.8,8.7-69.7,16.2
						C386.2,600.2,330.6,692.8,330.6,692.8z"/>
					<g id="XMLID_83_">
						<path id="XMLID_63_" class="st6" d="M802,705.4c-2.2,4.1-4.4,7.2-6.7,9.6c-18.6,19.2-40.3-15.8-59.9-30.3
							c4.6,11.5,6.2,31,5,38.6c-3.6,23.1-29.8-3.9-38.7-12.5c-33.5-32.7-55.5-71.4-104.2-74.9c8,24.7,21.1,91.8-5.5,96.5
							c-42.5,7.6-50.6-70.8-78.4-93.2c-16.7-13.5-20.3-16.8-26.9,6.6c-5.2,18.7-13.5,51.5-30.9,61.4c-17,9.7-25.9-7.1-27.5-24.6
							c-1.5-17.1,7.7-30.1,7.7-45.6v-1.1c-20-4.9-52.5,11.7-71.6,26.6c-13.1,10.3-24.8,23.2-36.1,35.8c-6.1,6.8-16.9,24.7-27,23.2
							c-3.8-0.6-6.7-2.2-8.7-4.6c-13.9-16.8,12.3-72.5,18.3-83.5c12.8-23.4,30.6-49.6,51.9-67.4c9.1-36.1,1.9-74.8,7.2-111.6
							c5-34,18.7-67.3,35.8-95.9c33.2-55.5,91.5-69.8,148.1-61.2c80.7,12.3,102.6,88.1,112.1,166.9c2.7,22.4,3,54.1,13.7,74.2
							c13.2,25,47.5,25.1,68.8,37.9C782.9,597.1,826.2,660,802,705.4z"/>
						<path id="XMLID_62_" class="st6" d="M446.2,530c-18.1-17.1-45.5,1-65.9,1.9c-20.4,0.8-39.5-7.6-57.6-17.4
							c-18.3-10-22.9-16.4-37.4-29.1c-14.9-13.1-31.3-7.7-38.7,12.1c-10.4,27.8,6.2,57.9,21,79.6c14.6,21.3,29.8,30.8,49.8,44.7
							c9,6.3,28.5,19,24.1,31.8l77.2-35.8c9.3-6.7,18-12.6,25.7-21.5C460,578.6,466.1,548.8,446.2,530z"/>
						<g id="XMLID_153_">
							<path id="XMLID_61_" class="st3" d="M329.2,510.4c-2.5-13.4-19-16.4-27.8-21.5l-56.3,53.7c6.4,8.7,11.8,42.2,25.7,47.9
								c21,8.6,6.3-24.7,1.4-34.7c22.9,28.9,26.8,13.7,19.1-16.3c15.7,20.9,32-5.8,17.8-25C317.7,522.4,332.5,528.6,329.2,510.4z"/>
							<g id="XMLID_154_">
								<g id="XMLID_156_">
									<path id="XMLID_60_" class="st7" d="M244.6,494c0,0-2.7-5-6.3-11.6c-4-7.4-9.2-17-12.9-24c-3-5.5-5.1-9.4-5.1-9.6
										c-0.2-0.4,20.4-7,22.6-8.5c4.9-3.1,9.7-6.6,12.5-11.1c2.4-4,3.2-8.9,1-15.2c-1.1-3-2.7-5.8-4.6-8.1c-2.7-3.3-6-5.7-9.3-6.7
										c-1.8-0.5-3.7-0.8-5.6-0.8c-5.2-0.1-10.6,1.8-15.8,5.7c-7,5.4-13.4,14.7-18.3,28.5c2-5.8-3.4-8.9,1.5-23.8
										c1.5-4.6,3.3-9,6.1-12.5c2.2-2.9,4.9-5.3,7.9-7.3c5.4-3.6,11.7-5.5,18-5.5c3.2,0,6.3,0.6,9.3,1.6c10.3,3.4,19,12.2,23,23.3
										c0.8,2.3,1.5,4.6,1.9,6.9c1.4,7.9,0.4,15.6-3.1,21.9c-0.1,0.2-0.2,0.3-0.3,0.5c-4.5,7.8-12,11.6-18.1,14.1
										c-1.1,0.4-5.3,2-9.4,3.2c1.1,2,2.2,4.2,3.4,6.5c3.4,6.4,7.1,13.3,9.7,18.2c2.1,3.9,3.5,6.6,3.5,6.6L244.6,494z"/>
								</g>
								<path id="XMLID_59_" class="st8" d="M251.6,556.9l57.9-64.4c0,0-40.2-41.2-67.5-10.7C241.9,481.8,216.2,519.4,251.6,556.9z"
									/>
							</g>
						</g>
						<g id="XMLID_142_">
							<path id="XMLID_58_" class="st9" d="M438.2,633.9c-0.4,1-1.1,2.1-1.9,3.1c0-0.4,0-0.7,0-1.1c-22.9-4.9-52.7,11.7-71.7,26.6
								c-13.1,10.3-24.9,23.2-36.1,35.8c-6.1,6.8-16.9,24.7-27,23.2c-3.9-0.6-6.7-2.2-8.7-4.6c4.5-18.2,11-35.3,23.2-52.6
								c15.8-22.4,36-45,59.6-57.3C390.6,599.1,454,596.3,438.2,633.9z"/>
							<path id="XMLID_57_" class="st10" d="M425.1,610.6c0,6.8-5.5,12.4-12.3,12.4c-6.8,0-12.4-5.5-12.4-12.4
								c0-6.8,5.5-12.4,12.4-12.4C419.6,598.3,425.1,603.8,425.1,610.6z"/>
							<path id="XMLID_56_" class="st10" d="M382.8,615.6c0,6.8-5.5,12.4-12.4,12.4c-6.8,0-12.3-5.5-12.3-12.4
								c0-6.8,5.5-12.4,12.3-12.4C377.2,603.3,382.8,608.8,382.8,615.6z"/>
							<circle id="XMLID_55_" class="st10" cx="340.5" cy="638" r="12.3"/>
							<path id="XMLID_54_" class="st10" d="M324.7,665.4c0,5-4,9-9,9c-5,0-9-4-9-9c0-5,4-9,9-9
								C320.6,656.4,324.7,660.4,324.7,665.4z"/>
							<path id="XMLID_53_" class="st10" d="M310.5,695.3c0,4.1-3.3,7.4-7.4,7.4c-4.1,0-7.4-3.3-7.4-7.4c0-4.1,3.3-7.4,7.4-7.4
								C307.2,688,310.5,691.3,310.5,695.3z"/>
							<path id="XMLID_52_" class="st10" d="M337.9,692.8c0,4.1-3.3,7.4-7.4,7.4c-4.1,0-7.4-3.3-7.4-7.4c0-4.1,3.3-7.4,7.4-7.4
								C334.6,685.5,337.9,688.8,337.9,692.8z"/>
							<path id="XMLID_51_" class="st10" d="M360.4,672.9c0,4.1-3.3,7.4-7.4,7.4c-4.1,0-7.4-3.3-7.4-7.4c0-4.1,3.3-7.4,7.4-7.4
								C357.1,665.5,360.4,668.8,360.4,672.9z"/>
							<path id="XMLID_50_" class="st10" d="M390.2,653c0,4.1-3.3,7.4-7.4,7.4c-4.1,0-7.4-3.3-7.4-7.4c0-4.1,3.3-7.4,7.4-7.4
								C386.9,645.6,390.2,648.9,390.2,653z"/>
							<path id="XMLID_49_" class="st10" d="M422.6,638c0,4.1-3.3,7.4-7.4,7.4c-4.1,0-7.4-3.3-7.4-7.4c0-4.1,3.3-7.4,7.4-7.4
								C419.3,630.7,422.6,634,422.6,638z"/>
						</g>
						<g id="XMLID_133_">
							<path id="XMLID_48_" class="st9" d="M795.4,715c-18.6,19.2-40.3-15.8-59.9-30.3c-1.3-1.9-46.2-60-46.2-60
								S797.8,621.6,795.4,715z"/>
							<g id="XMLID_134_">
								<path id="XMLID_47_" class="st10" d="M728.8,627.9c0,6.7-5.5,12.2-12.2,12.2c-6.8,0-12.2-5.5-12.2-12.2
									c0-6.8,5.5-12.2,12.2-12.2C723.3,615.7,728.8,621.2,728.8,627.9z"/>
								<circle id="XMLID_46_" class="st10" cx="748.6" cy="640.3" r="11.4"/>
								<path id="XMLID_45_" class="st10" d="M784.6,662.5c0,6.3-5.1,11.4-11.4,11.4c-6.3,0-11.4-5.1-11.4-11.4
									c0-6.3,5.1-11.4,11.4-11.4C779.5,651.1,784.6,656.2,784.6,662.5z"/>
								<path id="XMLID_44_" class="st10" d="M798.8,692.8c0,5.4-4.4,9.9-9.9,9.9c-5.4,0-9.9-4.4-9.9-9.9c0-5.4,4.4-9.9,9.9-9.9
									C794.3,683,798.8,687.4,798.8,692.8z"/>
								<circle id="XMLID_43_" class="st10" cx="761.5" cy="702.8" r="9.9"/>
								<path id="XMLID_42_" class="st10" d="M746,682.2c0,5.4-4.4,9.8-9.8,9.8c-5.4,0-9.8-4.4-9.8-9.8c0-5.4,4.4-9.8,9.8-9.8
									C741.7,672.4,746,676.8,746,682.2z"/>
							</g>
						</g>
						<g id="XMLID_121_">
							<g id="XMLID_126_">
								<path id="XMLID_41_" class="st4" d="M540.3,444.6c0.9,23.4,16.2,41.6,34.2,40.8c18-0.8,31.8-20.4,30.9-43.7
									c-0.9-23.4-16.2-41.6-34.2-40.8C553.2,401.7,539.4,421.3,540.3,444.6z"/>
								<g id="XMLID_127_">
									<path id="XMLID_40_" class="st11" d="M553.7,449.2c0.6,15.8,9.8,28.2,20.5,27.7c10.7-0.5,18.9-13.7,18.3-29.5
										c-0.6-15.8-9.8-28.2-20.5-27.7C561.3,420.2,553.1,433.4,553.7,449.2z"/>
									<path id="XMLID_39_" class="st12" d="M557.9,449c0.5,12.4,7.7,22.1,16.1,21.7c8.4-0.4,14.8-10.7,14.4-23.1
										c-0.5-12.4-7.7-22.1-16.1-21.7C563.8,426.3,557.4,436.6,557.9,449z"/>
									<ellipse id="XMLID_38_" class="st4" cx="587.3" cy="435.9" rx="8.2" ry="9.1"/>
									<ellipse id="XMLID_37_" class="st4" cx="556.6" cy="467.6" rx="6.2" ry="6.9"/>
								</g>
							</g>
							<path id="XMLID_36_" class="st4" d="M547.4,496.4c0,0-47.2,8.2-63.8-12.5C483.7,484,509.4,565.2,547.4,496.4z"/>
							<ellipse id="XMLID_35_" class="st13" cx="599" cy="490.2" rx="28.1" ry="13.3"/>
							<path id="XMLID_34_" class="st13" d="M459,490c0,7.5-12.6,13.5-28.1,13.5c-15.5,0-28.1-6.1-28.1-13.5
								c0-7.5,12.6-13.5,28.1-13.5C446.4,476.4,459,482.5,459,490z"/>
							<path id="XMLID_33_" class="st8" d="M657.7,399.7l-6.1-24L365,447.1l-0.8,18l56.6-12.4c5.5,21.5,26.1,42.1,47.5,37.8
								c21.9-4.5,36.5-33.5,34.2-56.1L657.7,399.7z"/>
						</g>
						<g id="XMLID_84_">
							<g id="XMLID_104_">
								<path id="XMLID_32_" class="st14" d="M651.9,381.5c-22.7,3.3-51.3,7.5-81.6,12c-5.7,0.8-11.5,1.7-17.4,2.6
									c-22,3.3-44.5,6.7-65.7,9.9c-5,0.7-10,1.5-14.8,2.2c-26.7,4-50.8,7.7-69,10.5c-6.5,1-12.3,1.9-17.1,2.6
									c-10.6,1.6-16.7,2.6-16.7,2.6c2.5-9.7,10-39.6,13.9-48.1c1.3-2.9,2.7-5.7,4.2-8.5c0.4-0.9,0.9-1.8,1.4-2.6
									c0.1-0.2,0.2-0.3,0.3-0.5c0.5-0.9,0.9-1.7,1.4-2.6c0.1-0.2,0.2-0.4,0.3-0.6c0.5-0.8,0.9-1.6,1.4-2.4c1-1.8,2.1-3.5,3.2-5.2
									c0.5-0.9,1.1-1.7,1.6-2.5c0.7-1.1,1.4-2.2,2.2-3.2c0.7-1,1.4-2.1,2.2-3.1c0.7-1,1.5-2,2.2-3c2.9-4,5.9-7.6,8.8-11
									c0.7-0.8,1.4-1.7,2.1-2.5c2.8-3.2,5.6-6.2,8.1-8.8c0.5-0.5,1-0.9,1.4-1.4c0.3-0.3,0.7-0.7,1-1c0.1-0.1,0.2-0.2,0.3-0.3
									c0.9-0.9,1.8-1.7,2.6-2.5c1.6-1.5,3-2.8,4.4-4c0.5-0.5,1-0.9,1.5-1.4c4.2-3.6,6.8-5.5,6.8-5.5c0.2-0.2,0.4,0.3,0.7,0.1
									c0.2-0.2,0.4,0,0.6,0c0,0,0,0,0,0c5-4,9.9-9,14.7-10h0c0.1,0,0.2,0.1,0.2,0.1c4.4-2.4,8.6-5.1,12.8-7.1c0,0,0,0,0,0
									c0,0,0-0.4,0-0.5c0,0,0-0.2,0-0.2c5.9-2.5,11.7-4.9,17.3-7.3c0,0,0,0,0,0h0c19-7,36.3-7,52.1-7h0c6.5,3,12.7,3,18.7,5h0
									c4.6,2,8.9,2.6,13.2,4.5c3,1.3,6,2.6,8.8,4.2c26.8,14.6,46,37.7,57,53.8c0,0,0-0.1,0,0c2.9,4.2,5.7,11.7,8,19.4
									c0.7,2.4,1.4,4.8,2.1,7.2c0,0.1,0.1,0.2,0.1,0.3c0,0,0,0,0,0.1c0.8,2.9,1.5,5.6,2,8c0.4,1.7,0.8,3.2,1.1,4.5
									C651.6,380.1,651.9,381.5,651.9,381.5z"/>
								<path id="XMLID_31_" class="st15" d="M721.8,335c0,0-8.2,28.8-45.9,32.1c-6.7,0.6-14.4,0.4-23.1-1c-1.5-0.2-3-0.5-4.6-0.8
									c-0.1,0-0.1,0-0.2,0c-0.1,0-0.1,0-0.2-0.1c0,0,0.1-0.1,0.2-0.3c0.3-0.6,1.3-2,2.8-4C657.8,352,678.7,332.2,721.8,335z"/>
								<path id="XMLID_30_" class="st14" d="M644,368.5c0,0,18.5-25.6,77.7,32.7C721.7,401.2,699.1,444.1,644,368.5z"/>
								<g id="XMLID_106_">
									<circle id="XMLID_29_" class="st4" cx="551.2" cy="344.3" r="9.3"/>
									<circle id="XMLID_28_" class="st4" cx="511.4" cy="376.7" r="9.3"/>
									<circle id="XMLID_27_" class="st4" cx="471.5" cy="361.7" r="9.3"/>
									<circle id="XMLID_26_" class="st4" cx="429.2" cy="391.6" r="9.3"/>
									<path id="XMLID_25_" class="st4" d="M403.6,416.5c0,0.7-0.1,1.4-0.3,2.1c-6.5,1-12.3,1.9-17.1,2.6c-0.8-1.4-1.3-3-1.3-4.7
										c0-5.2,4.2-9.3,9.3-9.3C399.5,407.2,403.6,411.4,403.6,416.5z"/>
									<path id="XMLID_24_" class="st4" d="M488.3,401.6c0,1.6-0.4,3.1-1.1,4.4c-5,0.7-10,1.5-14.8,2.2c-1.7-1.7-2.7-4-2.7-6.6
										c0-5.2,4.2-9.3,9.3-9.3C484.1,392.3,488.3,396.4,488.3,401.6z"/>
									<path id="XMLID_23_" class="st4" d="M570.5,391.6c0,0.6-0.1,1.2-0.2,1.8c-5.7,0.8-11.5,1.7-17.4,2.6
										c-0.7-1.3-1.1-2.8-1.1-4.4c0-5.2,4.2-9.3,9.3-9.3C566.3,382.3,570.5,386.5,570.5,391.6z"/>
									<circle id="XMLID_22_" class="st4" cx="391.8" cy="381.7" r="9.3"/>
									<circle id="XMLID_21_" class="st4" cx="588.6" cy="371.7" r="9.3"/>
									<circle id="XMLID_20_" class="st4" cx="621" cy="341.8" r="9.3"/>
									<path id="XMLID_19_" class="st4" d="M650,373.3c-0.4,0.5-0.9,0.9-1.5,1.2c-1.5,1-3.2,1.5-5.1,1.5c-5.2,0-9.3-4.2-9.3-9.3
										c0-5.2,4.2-9.3,9.3-9.3c0.8,0,1.6,0.1,2.4,0.3c0.7,2.4,1.4,4.9,2.1,7.2c0,0.1,0.1,0.2,0.1,0.3c0,0,0,0,0,0.1
										C648.7,368.2,649.4,370.9,650,373.3z"/>
								</g>
								<path id="XMLID_18_" class="st15" d="M637.8,338.3c-88,2-216.8,29.2-254.3,37.5c21.1-46.1,57.8-72.9,57.8-72.9
									c0.2-0.2,0.4-0.3,0.7-0.5c5.8-2.7,9.8-4.4,10.6-4.8c3.8-1.5,106.5-11.9,128.1-13.2C607.5,299,626.7,322.2,637.8,338.3z"/>
							</g>
							<g id="XMLID_85_">
								<path id="XMLID_17_" class="st16" d="M271.6,281.8c0,0-17.3,11.1,15.1,14.2c32.4,3.2,130.4,26.8,137.2,5.2
									c6.8-21.5-10.6-35.7-10.6-35.7S305.4,242.6,271.6,281.8L271.6,281.8z"/>
								<path id="XMLID_16_" class="st17" d="M285.9,279.9c0,0,116.7-4.7,150.9,13.5l3.6,5.8C440.4,299.3,405.1,281.2,285.9,279.9z"
									/>
								<path id="XMLID_15_" class="st8" d="M656.3,314.9l-5.6,23.5c-3.6,0-7.2,0-10.8,0c-51.7-0.1-104.9-0.1-156,6.7
									c-23,3.1-45.2,9.5-67.5,15.6c-7.4,2-17.3,5.7-26,6.5c-2.7,0.2-5.3,0.2-7.7-0.3c-7.7-1.6-14.2-31.9-15.5-37
									c-1-4.1-1.8-8.2-2.4-12.3c2.8-0.4,6.5-1,10.3-1.8c7.5-1.7,15.5-4.5,18.8-8.9c-5.9-5.6-12.1-9.9-18.6-13.4
									c-3.6-1.9-7.2-3.5-11-5c1.7-14.9,6.8-29.5,15.9-42.7c28.2-41.1,70.5-68.3,117.7-84.8c0,0,122.4,5,151.8,106
									c-4.6,3.5-9.1,7-12.9,10.1c-8.8,7-14.9,12.1-14.9,12.1s7-0.1,17.2-0.4c4.5-0.1,9.7-0.3,15.2-0.5
									C655.4,296.4,656.1,305.3,656.3,314.9z"/>
								<g id="XMLID_91_">
									<path id="XMLID_96_" class="st4" d="M541,238c-11.9-4.8-33.5-3.9-46.7-0.1c-6.8,2-16.5,6.2-20.7,10.6
										c-9.9,10.4,2.1,21.6,14.2,29.2c0,0,0,0,0,0c0,0,0,0,0,0c9.1,5.7,18.7,9.5,18.7,9.5l-1.6,4.3v0l-0.9,0.1l-7.3,14.7l8.6-0.8
										l3.6-9l2.9-0.4l-0.5,8.3l6.9-0.9l-1.4-8.1l2.5-0.3l3.5,7.4l5.1-1l-3.2-7.1l3.3-0.4l3.8,6.6l3.8-0.7c0,0-3.8-6.8-6.1-11
										c-0.9-1.6-1.6-2.9-1.9-3.3c-0.9-1.6,8.7-9.7,9.8-11.3c0.7-0.9,1.5-2,2.3-3.1c0,0,0,0,0-0.1C547,261,555.4,243.8,541,238z
										 M521.1,243.9c14.3-3,22.3,12.6,16.5,18.5c-5.8,5.9-17.5,6.9-17.5,6.9S506.8,246.9,521.1,243.9z M486.2,269.1
										c-7.2-4.2-3.7-21.3,11-22.1c14.6-0.8,7.7,24.2,7.7,24.2S493.4,273.4,486.2,269.1z"/>
									<path id="XMLID_11_" class="st4" d="M466.2,246l-10.5-4.9c0,0-5.7-21.1-12-13.6c-6.4,7.5,0.2,15.8,0.2,15.8
										s-23.6,1.1-15.6,10.2c8,9,19.8-1.2,19.8-1.2l16.2,3.3L466.2,246z"/>
									<path id="XMLID_10_" class="st4" d="M483.4,281.7l-11,4.2c0,0-21.6-9.1-19.4,0c2.2,9.1,13.6,9.7,13.6,9.7
										s-14.5,17.2-1.5,17.2c12.9,0,12-14.5,12-14.5l13.4-9.3L483.4,281.7z"/>
									<path id="XMLID_9_" class="st4" d="M549.3,235.9l8.1-8c0,0-2-21.7,6.6-16.7c8.6,5,5.4,15,5.4,15s22.6-6.6,18.2,4.5
										c-4.4,11.1-19.1,5.3-19.1,5.3l-14.1,8.3L549.3,235.9z"/>
									<path id="XMLID_8_" class="st4" d="M545,275.4l11.8,1.1c0,0,18.3-14.5,18.7-5.2c0.4,9.3-10.4,12.9-10.4,12.9
										s18.7,12.7,6.2,16.1c-12.4,3.4-15.5-10.8-15.5-10.8l-15.5-5.4L545,275.4z"/>
								</g>
								<g id="XMLID_87_">
									<path id="XMLID_7_" class="st18" d="M375.1,315.6c2.1,22.8,10.3,41.7,15.2,51.5c-2.7,0.2-5.3,0.2-7.7-0.3
										c-7.7-1.6-14.2-31.9-15.5-37c-1-4.1-1.8-8.2-2.4-12.3C367.6,317.1,371.3,316.5,375.1,315.6z"/>
									<path id="XMLID_6_" class="st18" d="M649.5,266.7c-4.6,3.5-9,7-13,10.1c-7.1-29.8-22.2-51.3-39.7-66.8
										c-16.7-14.7-35.8-24-52.4-29.8c-23.9-8.4-42.9-9.6-42.9-9.6s-71.6,17.2-110,76.8c-10,15.5-14.8,31.1-16.4,45.9
										c-3.6-1.9-7.2-3.5-11-5c1.7-14.9,6.7-29.5,15.8-42.7c28.2-41.1,70.5-68.3,117.7-84.9c0,0,23.4,0.9,52.3,10.5
										c17.6,5.8,37.2,14.8,54.7,28.8C624.1,215.5,640.9,236.9,649.5,266.7z"/>
									<path id="XMLID_5_" class="st18" d="M656.3,314.9l-5.6,23.5c-3.6,0-7.2,0-10.8,0c1.8-18.6,1.4-35.1-1-49.8
										c4.5-0.1,9.7-0.3,15.2-0.5C655.4,296.4,656.1,305.3,656.3,314.9z"/>
								</g>
								<path id="XMLID_4_" class="st7" d="M604.8,200l-7.9,10c-16.7-14.7-35.8-24-52.4-29.8l5.6-8.9
									C567.7,177.1,587.3,186.1,604.8,200z"/>
							</g>
						</g>
					</g>
				</g>
				<g id="XMLID_80_">
					<path id="XMLID_3_" class="st4" d="M269.1,412.7c-1.8,8.7-3.7,13.3-9.9,14.4c8.8,0.9,8.7,8.7,10.1,15.4
						c0.2-6.3,1.3-13.4,7-16.2C271.3,424.6,270.9,419.7,269.1,412.7z"/>
				</g>
			</g>
		</g>
	</g>
	<ellipse id="XMLID_2_" class="st2" cx="551.2" cy="786.8" rx="313.7" ry="55.9"/>
	<path id="XMLID_1_" class="st19" d="M839.5,723.5c0.3-4.3,5.9-5.7,8.3-2.1c3.2,4.7,6.4,11.1,7.8,18.9c2.6,14.9,3,41.5,3.1,49.5
		c0,1.5-0.7,2.9-2,3.8c-5.5,3.8-22.6,14-51.9,18.2c-9,1.3-18,2.6-26.7,3.8c-5.3,0.7-7.3-6.7-2.3-8.7c23.8-9.5,49.1-22.4,54.1-36.1
		C836.3,753.5,838.7,735,839.5,723.5z"/>
</g>
</svg>
