<?xml version="1.0" encoding="utf-8"?>
<!-- Generator: Adobe Illustrator 19.0.0, SVG Export Plug-In . SVG Version: 6.00 Build 0)  -->
<svg version="1.1" id="Layer_1" xmlns="http://www.w3.org/2000/svg" xmlns:xlink="http://www.w3.org/1999/xlink" x="0px" y="0px"
	 viewBox="0 0 3000 1500" style="enable-background:new 0 0 3000 1500;" xml:space="preserve">
<style type="text/css">
	.st0{fill:#003042;}
	.st1{fill:#1A111B;}
	.st2{fill:#06232C;}
	.st3{fill-rule:evenodd;clip-rule:evenodd;fill:#06232C;}
	.st4{fill:none;stroke:#06232C;stroke-width:15;stroke-miterlimit:10;}
</style>
<rect id="XMLID_127_" x="-23.4" y="-11.1" class="st0" width="3035.4" height="1535.7"/>
<path id="XMLID_223_" class="st1" d="M-829.5,329.2c0.8-15.6,1.3-31.2,1.3-47c0-476.3-386.1-862.4-862.4-862.4
	c-476.3,0-862.4,386.1-862.4,862.4c0,15.8,0.5,31.4,1.3,47H-829.5z"/>
<g id="XMLID_385_">
	<g id="XMLID_390_">
		<path id="XMLID_222_" class="st2" d="M2550.5,1528.8c-8,0-14.5-6.5-14.5-14.5c0-30.2,15.7-45.9,28.3-58.6
			c11.5-11.6,19.9-20,19.9-38.2c0-18.2-8.3-26.6-19.9-38.2c-12.6-12.7-28.3-28.4-28.3-58.6c0-30.2,15.7-45.9,28.3-58.6
			c11.5-11.6,19.9-20,19.9-38.2c0-18.2-8.3-26.6-19.9-38.2c-12.6-12.7-28.3-28.4-28.3-58.6c0-30.2,15.7-45.9,28.3-58.6
			c11.5-11.6,19.9-20,19.9-38.2c0-8,6.5-14.5,14.5-14.5c8,0,14.5,6.5,14.5,14.5c0,30.2-15.7,45.9-28.3,58.6
			c-11.5,11.6-19.9,20-19.9,38.2c0,18.2,8.3,26.6,19.9,38.2c12.6,12.7,28.3,28.4,28.3,58.6c0,30.2-15.7,45.9-28.3,58.6
			c-11.5,11.6-19.9,20-19.9,38.2c0,18.2,8.3,26.6,19.9,38.2c12.6,12.7,28.3,28.4,28.3,58.6c0,30.2-15.7,45.9-28.3,58.6
			c-11.5,11.6-19.9,20-19.9,38.2C2564.9,1522.3,2558.4,1528.8,2550.5,1528.8z"/>
	</g>
	<g id="XMLID_388_">
		<path id="XMLID_221_" class="st2" d="M2465.8,1528.8c-8,0-14.5-6.5-14.5-14.5c0-30.2,15.7-45.9,28.3-58.6
			c11.5-11.6,19.9-20,19.9-38.2c0-18.2-8.3-26.6-19.9-38.2c-12.6-12.7-28.3-28.4-28.3-58.6c0-30.2,15.7-45.9,28.3-58.6
			c11.5-11.6,19.9-20,19.9-38.2c0-18.2-8.3-26.6-19.9-38.2c-12.6-12.7-28.3-28.4-28.3-58.6c0-30.2,15.7-45.9,28.3-58.6
			c11.5-11.6,19.9-20,19.9-38.2c0-8,6.5-14.5,14.5-14.5c8,0,14.5,6.5,14.5,14.5c0,30.2-15.7,45.9-28.3,58.6
			c-11.5,11.6-19.9,20-19.9,38.2c0,18.2,8.3,26.6,19.9,38.2c12.6,12.7,28.3,28.4,28.3,58.6c0,30.2-15.7,45.9-28.3,58.6
			c-11.5,11.6-19.9,20-19.9,38.2c0,18.2,8.3,26.6,19.9,38.2c12.6,12.7,28.3,28.4,28.3,58.6c0,30.2-15.7,45.9-28.3,58.6
			c-11.5,11.6-19.9,20-19.9,38.2C2480.3,1522.3,2473.8,1528.8,2465.8,1528.8z"/>
	</g>
	<g id="XMLID_386_">
		<path id="XMLID_220_" class="st2" d="M2385.9,1528.8c-8,0-14.5-6.5-14.5-14.5c0-30.2,15.7-45.9,28.3-58.6
			c11.5-11.6,19.9-20,19.9-38.2c0-18.2-8.3-26.6-19.9-38.2c-12.6-12.7-28.3-28.4-28.3-58.6c0-30.2,15.7-45.9,28.3-58.6
			c11.5-11.6,19.9-20,19.9-38.2c0-18.2-8.3-26.6-19.9-38.2c-12.6-12.7-28.3-28.4-28.3-58.6c0-30.2,15.7-45.9,28.3-58.6
			c11.5-11.6,19.9-20,19.9-38.2c0-8,6.5-14.5,14.5-14.5c8,0,14.5,6.5,14.5,14.5c0,30.2-15.7,45.9-28.3,58.6
			c-11.5,11.6-19.9,20-19.9,38.2c0,18.2,8.3,26.6,19.9,38.2c12.6,12.7,28.3,28.4,28.3,58.6c0,30.2-15.7,45.9-28.3,58.6
			c-11.5,11.6-19.9,20-19.9,38.2c0,18.2,8.3,26.6,19.9,38.2c12.6,12.7,28.3,28.4,28.3,58.6c0,30.2-15.7,45.9-28.3,58.6
			c-11.5,11.6-19.9,20-19.9,38.2C2400.3,1522.3,2393.9,1528.8,2385.9,1528.8z"/>
	</g>
</g>
<g id="XMLID_364_">
	<g id="XMLID_369_">
		<path id="XMLID_209_" class="st2" d="M2729,1538.2c-3.2,0-5.7-2.6-5.7-5.7c0-15.4,3.1-23.1,6.2-30.6c2.7-6.8,5.3-13.2,5.3-26.3
			c0-13.1-2.6-19.6-5.3-26.3c-3-7.5-6.2-15.3-6.2-30.6c0-15.4,3.1-23.1,6.2-30.6c2.7-6.8,5.3-13.2,5.3-26.3
			c0-13.1-2.6-19.6-5.3-26.4c-3-7.5-6.2-15.3-6.2-30.6c0-15.4,3.1-23.1,6.2-30.6c2.7-6.8,5.3-13.2,5.3-26.4c0-3.2,2.6-5.7,5.7-5.7
			c3.2,0,5.7,2.6,5.7,5.7c0,15.4-3.1,23.1-6.2,30.6c-2.7,6.8-5.3,13.2-5.3,26.4c0,13.1,2.6,19.6,5.3,26.4c3,7.5,6.2,15.3,6.2,30.6
			c0,15.4-3.1,23.1-6.2,30.6c-2.7,6.8-5.3,13.2-5.3,26.4s2.6,19.6,5.3,26.3c3,7.5,6.2,15.3,6.2,30.6c0,15.4-3.1,23.1-6.2,30.6
			c-2.7,6.8-5.3,13.2-5.3,26.3C2734.8,1535.6,2732.2,1538.2,2729,1538.2z"/>
	</g>
	<path id="XMLID_208_" class="st2" d="M2721.7,1276c7.1,8,3.9,22.6,3.9,22.6s-14.8,1.5-22-6.5c-7.1-8-3.8-22.6-3.8-22.6
		S2714.5,1268,2721.7,1276z"/>
	<path id="XMLID_207_" class="st2" d="M2744.4,1329c-7.1,8-3.9,22.6-3.9,22.6s14.8,1.5,22-6.5c7.1-8,3.8-22.6,3.8-22.6
		S2751.6,1321,2744.4,1329z"/>
	<path id="XMLID_206_" class="st2" d="M2721.7,1404c7.1,8,3.9,22.6,3.9,22.6s-14.8,1.5-22-6.5c-7.1-8-3.8-22.6-3.8-22.6
		S2714.5,1395.9,2721.7,1404z"/>
	<path id="XMLID_205_" class="st2" d="M2744.4,1457c-7.1,8-3.9,22.6-3.9,22.6s14.8,1.5,22-6.5c7.1-8,3.8-22.6,3.8-22.6
		S2751.6,1449,2744.4,1457z"/>
</g>
<g id="XMLID_357_">
	<path id="XMLID_204_" class="st2" d="M850.8,1244.1l-33,33v-123.4l42.2-42.2c2.5-2.5,2.5-6.7,0-9.2c-2.5-2.5-6.7-2.5-9.2,0l-33,33
		v-97.2c0-3.6-2.9-6.5-6.5-6.5c-3.6,0-6.5,2.9-6.5,6.5v184l-31.6-31.6c-2.5-2.5-6.7-2.5-9.2,0c-2.5,2.5-2.5,6.7,0,9.2l40.8,40.8
		v101.7l-35.2-35.2c-2.5-2.5-6.7-2.5-9.2,0c-2.5,2.5-2.5,6.7,0,9.2l44.4,44.4v127.5c0,3.6,2.9,6.5,6.5,6.5c3.6,0,6.5-2.9,6.5-6.5
		v-192.7l42.2-42.2c2.5-2.5,2.5-6.7,0-9.2C857.5,1241.6,853.4,1241.6,850.8,1244.1z"/>
	<path id="XMLID_203_" class="st2" d="M776.5,1305.8c0,10.8-8.7,19.5-19.5,19.5c-10.8,0-19.5-8.7-19.5-19.5
		c0-10.8,8.7-19.5,19.5-19.5C767.7,1286.3,776.5,1295,776.5,1305.8z"/>
	<path id="XMLID_202_" class="st2" d="M776.5,1185.2c0,10.8-8.7,19.5-19.5,19.5c-10.8,0-19.5-8.7-19.5-19.5
		c0-10.8,8.7-19.5,19.5-19.5C767.7,1165.7,776.5,1174.4,776.5,1185.2z"/>
	<path id="XMLID_201_" class="st2" d="M883.5,1241.4c0,10.8-8.7,19.5-19.5,19.5s-19.5-8.7-19.5-19.5c0-10.8,8.7-19.5,19.5-19.5
		S883.5,1230.7,883.5,1241.4z"/>
	<path id="XMLID_200_" class="st2" d="M883.5,1101.3c0,10.8-8.7,19.5-19.5,19.5s-19.5-8.7-19.5-19.5c0-10.8,8.7-19.5,19.5-19.5
		S883.5,1090.6,883.5,1101.3z"/>
	<path id="XMLID_199_" class="st2" d="M830.8,1021.8c0,10.8-8.7,19.5-19.5,19.5c-10.8,0-19.5-8.7-19.5-19.5
		c0-10.8,8.7-19.5,19.5-19.5C822.1,1002.3,830.8,1011,830.8,1021.8z"/>
</g>
<g id="XMLID_345_">
	<g id="XMLID_348_">
		<path id="XMLID_192_" class="st2" d="M499.4,1738.1c-7.5,0-13.6-6.1-13.6-13.6c0-36.3,7.4-54.6,14.5-72.4
			c6.5-16.1,12.6-31.2,12.6-62.3c0-31-6.1-46.2-12.6-62.3c-7.1-17.7-14.5-36.1-14.5-72.4c0-36.3,7.4-54.6,14.5-72.4
			c6.5-16.1,12.6-31.2,12.6-62.3c0-31-6.1-46.2-12.6-62.3c-7.1-17.7-14.5-36.1-14.5-72.4c0-36.3,7.4-54.6,14.5-72.4
			c6.5-16.1,12.6-31.2,12.6-62.3c0-7.5,6.1-13.6,13.6-13.6c7.5,0,13.6,6.1,13.6,13.6c0,36.3-7.4,54.7-14.5,72.4
			c-6.5,16.1-12.6,31.2-12.6,62.3c0,31,6.1,46.2,12.6,62.3c7.1,17.8,14.5,36.1,14.5,72.4c0,36.3-7.4,54.6-14.5,72.4
			c-6.5,16.1-12.6,31.2-12.6,62.3c0,31,6.1,46.2,12.6,62.3c7.1,17.7,14.5,36.1,14.5,72.4c0,36.3-7.4,54.6-14.5,72.4
			c-6.5,16.1-12.6,31.2-12.6,62.3C512.9,1732,506.8,1738.1,499.4,1738.1z"/>
	</g>
	<g id="XMLID_346_">
		<path id="XMLID_191_" class="st2" d="M584.8,1738.1c-7.5,0-13.6-6.1-13.6-13.6c0-36.3,7.4-54.6,14.5-72.4
			c6.5-16.1,12.6-31.2,12.6-62.3c0-31-6.1-46.2-12.6-62.3c-7.1-17.7-14.5-36.1-14.5-72.4c0-36.3,7.4-54.6,14.5-72.4
			c6.5-16.1,12.6-31.2,12.6-62.3c0-31-6.1-46.2-12.6-62.3c-7.1-17.7-14.5-36.1-14.5-72.4c0-36.3,7.4-54.6,14.5-72.4
			c6.5-16.1,12.6-31.2,12.6-62.3c0-7.5,6.1-13.6,13.6-13.6c7.5,0,13.6,6.1,13.6,13.6c0,36.3-7.4,54.7-14.5,72.4
			c-6.5,16.1-12.6,31.2-12.6,62.3c0,31,6.1,46.2,12.6,62.3c7.1,17.8,14.5,36.1,14.5,72.4c0,36.3-7.4,54.6-14.5,72.4
			c-6.5,16.1-12.6,31.2-12.6,62.3c0,31,6.1,46.2,12.6,62.3c7.1,17.7,14.5,36.1,14.5,72.4c0,36.3-7.4,54.6-14.5,72.4
			c-6.5,16.1-12.6,31.2-12.6,62.3C598.3,1732,592.2,1738.1,584.8,1738.1z"/>
	</g>
</g>
<g id="XMLID_301_">
	
		<rect id="XMLID_188_" x="1012.4" y="937.4" transform="matrix(0.8051 -0.5931 0.5931 0.8051 -328.0883 951.8655)" class="st2" width="543.9" height="75.5"/>
	<path id="XMLID_336_" class="st2" d="M1087.8,1166.9l172.7,234.4l437.9-322.6l-172.7-234.4L1087.8,1166.9z M1435.1,1196.7l-73.3,54
		l-95.7-129.9l73.3-54L1435.1,1196.7z M1355.6,1054.9l73.3-54l95.7,129.9l-73.3,54L1355.6,1054.9z M1614.2,1064.8l-73.4,54
		l-95.7-129.9l73.4-54L1614.2,1064.8z M1176.5,1186.8l73.4-54.1l95.7,129.9l-73.4,54.1L1176.5,1186.8z"/>
	<path id="XMLID_182_" class="st2" d="M1078,1174.5c4.3,5.9,12.6,7.1,18.4,2.8L1539,851.2c5.9-4.3,7.1-12.6,2.8-18.4l0,0
		c-4.3-5.9-12.6-7.1-18.4-2.8l-442.6,326.1C1075,1160.4,1073.7,1168.6,1078,1174.5L1078,1174.5z"/>
	<path id="XMLID_181_" class="st2" d="M1041.9,1125.4c-12-28.5-3.6-62.5,22.4-81.6l356.9-262.9c26-19.1,61-17.1,84.6,2.8
		L1041.9,1125.4z"/>
	<g id="XMLID_331_">
		<polygon id="XMLID_180_" class="st2" points="1826.1,934.4 1875.5,897.9 1906.7,940.3 1857.3,976.7 		"/>
		<polygon id="XMLID_179_" class="st2" points="1805.2,949.7 1896.4,882.6 1876.6,855.7 1785.4,922.9 		"/>
	</g>
	<path id="XMLID_178_" class="st2" d="M1262.3,1557.6l690.6-508.8c0.8,1.1,1.7,2.1,2.5,3.2l61.7,83.7
		c65.9,89.4,46.8,215.3-42.6,281.2l-364.8,268.7L1262.3,1557.6z"/>
	<path id="XMLID_177_" class="st2" d="M1156.9,1505.6l866.4-638.3c34.2,46.4,24.3,111.8-22.1,146.1l-751.3,553.5L1156.9,1505.6z"/>
	<g id="XMLID_327_">
		<path id="XMLID_176_" class="st2" d="M2025.7,1129.4c19.6,26.6,31.6,56.5,36.6,87l-642.4,473.3l-117.4-36.2l719.1-529.8
			L2025.7,1129.4z"/>
	</g>
	
		<rect id="XMLID_175_" x="1545.9" y="1479.4" transform="matrix(-0.8051 0.5931 -0.5931 -0.8051 3740.1216 1800.3446)" class="st2" width="56.8" height="70.4"/>
	
		<rect id="XMLID_174_" x="1555.1" y="1489.7" transform="matrix(-0.8051 0.5931 -0.5931 -0.8051 3740.1145 1800.3761)" class="st2" width="38.5" height="49.8"/>
	<path id="XMLID_173_" class="st2" d="M1564.6,1521.8c3.9,5.4,11.5,6.5,16.8,2.5c5.4-3.9,6.5-11.5,2.6-16.8
		c-3.9-5.4-11.5-6.5-16.8-2.6C1561.8,1508.9,1560.7,1516.4,1564.6,1521.8z"/>
	<g id="XMLID_321_">
		<path id="XMLID_172_" class="st2" d="M1449.6,1667.8l612.7-451.4c1.4,8.4,2.2,16.8,2.5,25.3l-588.4,433.5L1449.6,1667.8z"/>
		<polygon id="XMLID_171_" class="st2" points="2021.5,1123.8 1323.6,1637.9 1307.1,1623 2008.5,1106.2 		"/>
	</g>
	<polygon id="XMLID_170_" class="st2" points="2008.7,847.5 1088.3,1525.6 1137,1520.2 2023.3,867.3 	"/>
	<path id="XMLID_169_" class="st2" d="M1434.1,1367.4c8.4,11.4,24.4,13.8,35.8,5.4c11.4-8.4,13.8-24.4,5.4-35.8
		c-8.4-11.4-24.4-13.8-35.8-5.4C1428.1,1340,1425.7,1356.1,1434.1,1367.4z"/>
	<polygon id="XMLID_168_" class="st2" points="1730.2,1443.4 1775.9,1409.8 1734.2,1353.1 1688.5,1386.8 	"/>
	<polygon id="XMLID_167_" class="st2" points="1731.5,1429.7 1762.5,1406.9 1732.9,1366.8 1702,1389.6 	"/>
	<path id="XMLID_166_" class="st2" d="M1722.5,1405.4c3.9,5.4,11.5,6.5,16.8,2.5c5.4-3.9,6.5-11.5,2.6-16.8
		c-3.9-5.4-11.5-6.5-16.8-2.6C1719.7,1392.5,1718.6,1400.1,1722.5,1405.4z"/>
	<path id="XMLID_165_" class="st2" d="M1592,1251.1c8.4,11.4,24.4,13.8,35.8,5.4c11.4-8.4,13.8-24.4,5.4-35.8
		c-8.4-11.4-24.4-13.8-35.8-5.4C1586,1223.7,1583.6,1239.7,1592,1251.1z"/>
	<polygon id="XMLID_164_" class="st2" points="1906.1,1313.9 1951.8,1280.2 1910.1,1223.5 1864.4,1257.2 	"/>
	
		<rect id="XMLID_163_" x="1888.9" y="1243.8" transform="matrix(-0.8051 0.5932 -0.5932 -0.8051 4196.8237 1158.2482)" class="st2" width="38.5" height="49.8"/>
	<path id="XMLID_162_" class="st2" d="M1898.4,1275.8c3.9,5.4,11.5,6.5,16.8,2.5c5.3-3.9,6.5-11.5,2.5-16.8
		c-3.9-5.4-11.5-6.5-16.8-2.6C1895.6,1262.9,1894.5,1270.5,1898.4,1275.8z"/>
	<path id="XMLID_161_" class="st2" d="M1767.9,1121.5c8.4,11.4,24.4,13.8,35.8,5.4c11.4-8.4,13.8-24.4,5.4-35.8
		c-8.4-11.4-24.4-13.8-35.8-5.4C1761.9,1094.1,1759.5,1110.1,1767.9,1121.5z"/>
	<path id="XMLID_160_" class="st0" d="M1445,1359.4c3.9,5.4,11.5,6.5,16.8,2.6c5.4-3.9,6.5-11.5,2.5-16.8
		c-3.9-5.4-11.5-6.5-16.8-2.6C1442.2,1346.5,1441,1354,1445,1359.4z"/>
	<path id="XMLID_159_" class="st0" d="M1602.9,1243.1c3.9,5.4,11.5,6.5,16.8,2.6c5.4-3.9,6.5-11.5,2.6-16.8
		c-3.9-5.4-11.5-6.5-16.8-2.6C1600.1,1230.2,1599,1237.7,1602.9,1243.1z"/>
	<path id="XMLID_158_" class="st0" d="M1778.8,1113.5c3.9,5.4,11.5,6.5,16.8,2.6c5.4-3.9,6.5-11.5,2.5-16.8
		c-3.9-5.4-11.5-6.5-16.8-2.6C1776,1100.6,1774.9,1108.1,1778.8,1113.5z"/>
	
		<rect id="XMLID_157_" x="1369.3" y="1609.5" transform="matrix(-0.8051 0.5931 -0.5931 -0.8051 3498.5127 2139.9004)" class="st2" width="56.8" height="70.4"/>
	<polygon id="XMLID_156_" class="st2" points="1397,1676.2 1428,1653.4 1398.4,1613.3 1367.4,1636.1 	"/>
	<path id="XMLID_155_" class="st2" d="M1388,1651.9c3.9,5.4,11.5,6.5,16.8,2.5c5.4-3.9,6.5-11.5,2.5-16.8
		c-3.9-5.4-11.5-6.5-16.8-2.6C1385.2,1639,1384.1,1646.5,1388,1651.9z"/>
	<path id="XMLID_154_" class="st2" d="M1257.5,1497.5c8.4,11.4,24.4,13.8,35.8,5.4c11.4-8.4,13.8-24.4,5.4-35.8
		c-8.4-11.4-24.4-13.8-35.8-5.4C1251.5,1470.1,1249.1,1486.2,1257.5,1497.5z"/>
	<path id="XMLID_153_" class="st0" d="M1268.4,1489.5c3.9,5.4,11.5,6.5,16.8,2.5c5.3-3.9,6.5-11.5,2.5-16.8
		c-3.9-5.4-11.5-6.5-16.8-2.6C1265.6,1476.6,1264.4,1484.2,1268.4,1489.5z"/>
	<polygon id="XMLID_152_" class="st2" points="960.7,1530.5 971.1,1522.8 1056,1460.3 1066.4,1452.7 1151.2,1390.1 1161.6,1382.5 
		1237.7,1326.4 1246.3,1320.1 1246.5,1319.9 1256.7,1312.4 1256.9,1312.3 1341.6,1249.9 1352,1242.2 1436.9,1179.7 1447.3,1172 
		1532.1,1109.5 1542.5,1101.8 1627.4,1039.3 1637.8,1031.6 1722.7,969.1 1733.1,961.4 1743,974.9 1775.7,1019.2 1765.3,1026.9 
		1732.6,982.5 1647.7,1045.1 1680.4,1089.4 1670,1097.1 1637.3,1052.7 1552.4,1115.3 1585.1,1159.6 1574.7,1167.3 1542,1122.9 
		1457.2,1185.4 1489.8,1229.8 1479.4,1237.5 1446.8,1193.1 1361.9,1255.6 1394.6,1300 1384.2,1307.7 1351.5,1263.3 1266.8,1325.7 
		1299.5,1370 1299.3,1370.2 1289.1,1377.7 1288.9,1377.9 1256.2,1333.5 1247.6,1339.8 1171.5,1395.9 1204.2,1440.2 1193.8,1447.9 
		1161.1,1403.5 1076.2,1466.1 1108.9,1510.4 1098.5,1518.1 1065.8,1473.7 981,1536.3 1013.6,1580.6 1003.2,1588.3 970.6,1543.9 	"/>
</g>
<path id="XMLID_88_" class="st3" d="M2105.6,1682.8c-1.1,0.6-9.7,3.7-9.7,3.7s0-7.1-3.5-10.2c-3.5-3.1-6.6-5.1-4.3-5.5
	c2.3-0.5,5.5-0.9,7-0.3c1.5,0.6,3.7,2.6,5.8,5.1C2103,1678.2,2105.4,1682.7,2105.6,1682.8L2105.6,1682.8z M2092.9,2036.1
	c10-3.9,28.2-10.3,44.3-15.8c4.1,13.7,13.3,42.6,20.4,52.5c9.4,13.2,13.1,19.7,28,14.6c14.9-5.1,78.8-33.8,78.8-33.8
	s5.1-1.1,7.8-1.7c2.8-0.6,12.2-6.3,14.9-5.8c2.7,0.4,5.7,1.7,9.1,3.8c3.4,2.1,8.3,4.9,15.5,7.9c7.3,3,27.8,18.4,29.6,21.7
	c10.8,18.4,25.2,47.9,28.8,46.2c3.6-1.7,41.7-55.4,36.7-59.2c-49.7-38.4-88.7-42.5-91.8-51.3c-3.1-8.7-9.6-16.1-14.6-17.8
	c-5-1.7-7.4-0.2-10.6,1.6c-3.3,1.8-6.3,7.3-7.4,10c-1.1,2.7-4.7,9.4-6.8,10.3c-2.1,0.9-7.3,5.6-7.5,4.7c-0.1-0.9-2.2-5.9-3.4-5.9
	c-1.2,0-2.1,1.2-2.3,2.6c-0.2,1.3-1.1,3.8-3.1,4c-1.1,0.1-10.3,1.1-20,2.6c-8.2-5.3-17.3-11.7-20.6-15.5c-6.4-7.6-6.2-6.3-7.2-12.9
	c-0.9-6.6-5.4-9.9-7.6-16c-2.1-6.1-6.7-11.2-10.1-12.4c-3.4-1.2-5.1-0.2-7.4,1.1c-0.4,0.2-0.8,0.6-1.2,0.9
	c-1.3-13-2.6-24.8-3.3-27.5c-1.6-6.4-1.3-7-1.3-7s15.6,3.4,28.1-4.2c12.4-7.6,19.2-17.9,19.2-17.9s-30.8-112-30.5-112.8
	c0.3-0.8,2.8-1.7,4-3.5c1.1-1.8-2.1-19.7-3.4-22.4c-1.4-2.7-0.3-2.6-2.1-3c-1.8-0.4-6.9-0.6-6.9-0.6l-5.5-21.1
	c0,0,1.3-15.1-6.7-24.7c-8.1-9.6-14.1-13-14.1-13s-12.8-9.8-18.1-11.5c-5.3-1.7-8.7-3.8-8.7-3.8s-1.2-4-2-4.9
	c-0.9-0.9,0.3,0.1-1.9-3.1c-2.2-3.2-1.9-3.5-3.9-4.3c-2-0.8-3.4-0.9-3.4-0.9s-2.2-4.1-3.7-5.5c-1.6-1.4-2.1-1.3-2.1-1.3
	s2-2.2-0.2-2.9c-2.2-0.7-5.6-0.6-5.6-0.6s-7.7-6.6-12-7.3c-4.3-0.7-7.8-4.2-13-3.7c-5.2,0.5-6.8,0.9-6.8,0.9s-5.3-4.3-12.8-5.5
	c-7.5-1.2-12.9-0.2-12.9-0.2s-18.9-0.3-27.8,7.4c-8.9,7.6-9,19-10.4,22.3c-1.4,3.3-1.9,8.8-1.9,8.8s-4.7-0.1-6.1,0.3
	c-1.3,0.4-4.6,13.6-5,16.3c-0.4,2.7-1.8,4.7,0.6,5c2.4,0.3,5.2,2,5.2,2s-2.7,3.1-1.9,4.5c0.8,1.4,3.7,2.3,3.9,3.8
	c0.2,1.5-1,3.5-1,3.5c-0.8-0.3-2.7-0.6-2.7-0.6s-1.2-2.1-1.6-2.3c-0.5-0.2-2.4,0.3-2.4,0.3l-1.1,2.6l-2.8,2c0,0,0.2-0.4-3.6-0.9
	s-6,0-6,0s1.8-3.8,2.4-3.8c0.5,0,3.3-0.3,5.6-1c2.3-0.7,4.5-2.4,4.7-3.3c0.1-0.9,0.6-2-0.7-1.8c-1.3,0.2-11.9,2.6-13.7,3.2
	c-1.7,0.5-3.6,1.7-4.2,2.7c-0.6,1-1.4,5.9-1.4,5.9s-2.1,2.2-2.6,2.9c-0.6,0.7-0.7,2.3-0.7,2.3s-1.3,1.9-1.8,2.9
	c-0.5,1-0.6,2.7-0.6,2.7l0.6,1.6c0,0-1.4,2.2-1.4,3.1c0.1,0.9,0.5,3.1,0.8,4.3c0.3,1.2-0.1,6.1-0.4,9.5c-0.3,3.4-7.1,38.1-9.9,52.9
	c-2.8,14.8-3.1,31-0.5,34.2c2.6,3.2,11.4,2.1,13.1,1.9c1.7-0.2,2.6-0.2,2.6-0.2l15.1,5.5c0,0,1.7,2.7,4,3.1c2.3,0.4,8.5-0.1,8.5-0.1
	l0.9,4.6c0,0-19.5,13.6-20.1,14.7c-0.6,1.1,1,9.8,5.3,14.8c4.3,5,7.5,7.2,8.9,6.2c1.5-1,3.3-4.1,3.3-4.1s10.4-3.6,10.4-5.2
	c0-1.6-2.5-9.2-4.1-10.2c-1.5-1-5.1,0.7-5.1,0.7l-1.9-3.6c0,0,10.6-6.6,13.2-7.8c2.6-1.2,2.9-2.7,3.8-2.8c0.9-0.1,2.2,0.6,2.5,2.8
	c0.3,2.3-1.3,15.1-0.4,15.8c0.9,0.7-1.8,2.6-2.7,4c-0.9,1.4-1.7,5,0.6,4.1c2.3-0.8,4.4-1.9,5.3-0.8c1,1.1,1.9,6.1,1.9,6.1
	s-3.4,4.6-4.4,5.8c-1,1.2-4.2,3.2-3.8,6.1c0.4,2.8,2.3,6.3,4.4,4.9c2-1.5,5.3-2,5.3-2s-3.4,7.6-1.6,9.3c1.8,1.6,4.2,2.7,5.4,0.7
	c1.2-2,2.1-2.1,2.1-2.1s1.3,5,2.7,4.7c1.4-0.3,2.2-1.8,3.2-1.7c1,0.1,1.4-0.3,2.8,0.5c1.4,0.8,1.6,2.6,2.9,3.3
	c1.3,0.7,3-0.3,3.6-1.7c0.6-1.4-0.2-1.7,1.4-3.3c1.6-1.6,0.8-2.8,2.7-1.9c1.9,1,2.2,0.6,1.4,3.4c-0.8,2.8-9.6,16.6-9.6,16.6
	s-11.6,4.4-14,8.3c-2.4,4-13.6,27.3-12.8,30.5c0.8,3.2,4,10.9,10.3,11.1c6.3,0.2,12.4-5.8,12.4-5.8l6.6-12.3c0,0,7.7-16.7,7-18
	c-0.7-1.3-2.3-8.1-2-9.2c0.3-1.1,6.2-20.7,8-19.2c1.9,1.5,5.8,4.9,5.5,9.8c-0.3,4.9-16.1,41.9-18.9,57.8
	c-2.8,15.9-5.6,28.6-5.6,28.6s-0.6,6.5,1.9,11.5c2.5,5,3.4,8.9,20,7.3C2079,2044.8,2087.4,2040.2,2092.9,2036.1L2092.9,2036.1z
	 M2188.5,2005.6c0.8,0.4,1.6,0.8,2.4,1.4c2.3,1.5,5.7,3.4,10.8,5.5c5,2.1,18.5,13.4,20.6,15c0.5,0.4,1.2,1.4,2,2.7
	c-2.3,0.6-4.3,1.2-5.9,1.9c-9.6,4.2-23.9,13.1-25.5,11.7c-1.6-1.4-3.8-31.6-3.8-31.6S2188.8,2009.6,2188.5,2005.6L2188.5,2005.6z
	 M2105.8,1742c0.1-0.2,4.9,0.6,5.6-0.3c0.8-0.9,1.4-0.3,2-4c0.6-3.6,0.8-6.2,2.8-8.8c2-2.6,1.5-7.4,1.1-9.3c-0.4-2-2-7.4-2-7.4
	l-9.3,0.9c0,0-1.4-10.7-0.6-11.6c0.7-0.9,6.2-2,6.2-2l-2.2-11.2c0,0-8.9,1.3-10.4,2.2c-1.5,1-1.3,1-1.3,2.7c0,1.6-1.7,7.8-2.8,13
	c-1.1,5.2-7.3,14.5-8,16.2c-0.7,1.7,0.7,6.3,1.2,9c0.5,2.7,0.5,4.8,2.3,7.5C2092.2,1741.7,2102.8,1742.4,2105.8,1742L2105.8,1742z
	 M2022.3,1758.4C2022.3,1758.4,2022.3,1758.4,2022.3,1758.4C2022.3,1758.4,2022.3,1758.4,2022.3,1758.4L2022.3,1758.4z
	 M2033.5,1758.7c0,1.1-8.7,8.8-11.9,13.9c-3.2,5.1-3.9,3.3-7.8,6c-3.9,2.6-7.4,11.8-9.2,18.5c-1.7,6.7-15.2,14.2-15.2,14.2
	s-2.6-23.5-1.8-26.3c0.8-2.8,7-19.8,7-19.8s1.5,0.3,2.3,1.3c0.8,1,5.3,6,7.2,5.3c1.9-0.6,3.3-1.6,3.3-1.6s2.1-0.9,3.8-0.7
	c1.7,0.2,6.2-1.3,7.2-2.8c1-1.5,3.4-7.7,3.6-8.2c0.1,0,1.8,0.2,4.2,0.1c2.7-0.1,3.8-1,5.4-1.1
	C2033.6,1757.3,2033.5,1757.6,2033.5,1758.7L2033.5,1758.7z M2103.9,2002c0,0,13.9-18.8,15.9-20.9c0.2,0.4,3.4,2.1,5.4,4.6
	c2,2.4,3.4,8.9,4,9.9C2129.8,1996.5,2103.9,2002,2103.9,2002L2103.9,2002z M2018.7,1858.3c0,0,6.8-5.3,9.2-5.8c0,0-0.1,3.5,0.1,6.4
	c0.2,2.9-0.1,5.3-0.3,7c-0.2,1.7-1.3,1.8-2.5,1.3c-1.2-0.5-3.4-1.1-3.7-2.3C2021.3,1863.8,2018.7,1858.3,2018.7,1858.3
	L2018.7,1858.3z M1995.6,1843.1c3.3-2.7,11-9.8,16.1-13.3c5.1-3.6,13.5-11.8,13.5-11.8s-1.1,5.2-2.2,8.7c-1.1,3.4-3.7,11.3-2.6,13.8
	c1.1,2.6-1.7,3.2-6.6,6.5c-4.9,3.3-15.3,6.4-16.1,7.1c-0.8,0.7-8-2.5-8.9-3C1988.7,1850.9,1992.3,1845.8,1995.6,1843.1z"/>
<g id="XMLID_7_">
	<g id="XMLID_8_">
		<g id="XMLID_23_">
			<g id="XMLID_57_">
				<circle id="XMLID_60_" class="st2" cx="735.1" cy="642.7" r="25.9"/>
				<circle id="XMLID_59_" class="st2" cx="847.8" cy="755.6" r="25.9"/>
				
					<rect id="XMLID_58_" x="724.6" y="685.4" transform="matrix(0.7065 0.7077 -0.7077 0.7065 727.1367 -354.8954)" class="st2" width="133.7" height="27.6"/>
			</g>
		</g>
		<g id="XMLID_12_">
			<g id="XMLID_56_">
				<path id="XMLID_61_" class="st2" d="M821.2,669.4c-16-16-16-42,0.1-58c16-16,42-16,58,0.1c16,16,16,42-0.1,58
					C863.2,685.5,837.2,685.4,821.2,669.4z M865,625.7c-8.1-8.2-21.4-8.2-29.6,0c-8.2,8.1-8.2,21.4,0,29.6c8.1,8.2,21.4,8.2,29.6,0
					C873.2,647.1,873.2,633.8,865,625.7z"/>
			</g>
		</g>
		<path id="XMLID_1_" class="st2" d="M783.8,931.2l28.2-41.9c2.2-3.3,0.8-6.6-3-7.4l-49.5-10.3c-3.9-0.8-5.8,1.5-4.3,5.2l6.9,16.9
			c-15.8,7.3-63.3,25.7-83.9-8.4c-13.2-21.9-4.2-41.6,8.7-57.4l152.7-152.4L815.3,651L662.6,803.4c-15.8,12.9-35.6,21.9-57.4,8.6
			c-34.1-20.6-15.6-68.1-8.2-83.9l16.9,6.9c3.7,1.5,6-0.4,5.2-4.3l-10.2-49.5c-0.8-3.9-4.1-5.2-7.4-3l-42,28.2
			c-3.3,2.2-3,5.2,0.7,6.7l16.4,6.7c-34.2,51.1-7.7,110.9,6.2,130.8C597,871,600,890.3,600,890.3s19.3,3,39.6,17.3
			c19.9,13.9,79.7,40.5,130.8,6.5l6.7,16.4C778.6,934.1,781.6,934.5,783.8,931.2z"/>
	</g>
	<g id="XMLID_9_">
		<g id="XMLID_15_">
			<path id="XMLID_16_" class="st2" d="M871.5,628.8c-3.9-2.2-7.9-4.8-11.7-7.7c-7.6,20.1,0.8,35.3,0.9,35.5c0.2,0.4,0.4,0.7,0.7,1
				c2.1,2.5,5.7,3.2,8.6,1.5c3.3-1.9,4.4-6,2.5-9.3C872.4,649.7,867.8,641.2,871.5,628.8z"/>
		</g>
		<g id="XMLID_11_">
			<path id="XMLID_14_" class="st2" d="M937.4,543.3c0,8.4-10.9,17.8-24.8,27.4v16.4c21.6-14,38.5-27.2,38.5-43.8
				c0-19.1-18.7-32-38.4-42.9c0.1,5.2,0.1,10.5,0.2,15.9C926.3,524.3,937.4,533.2,937.4,543.3z"/>
			<path id="XMLID_13_" class="st2" d="M879.8,613.4c8.8-9.4,20.7-18,33-26.1c0.7-2.9,1.2-5.8,1.5-8.8v-8.4
				c-17.8,11.3-36.2,23.7-48.4,38.4C869.9,611.3,874.6,613.1,879.8,613.4z"/>
		</g>
		<path id="XMLID_10_" class="st2" d="M916.7,518.1v-16c-7.4-5.5-12.8-18.2-12.8-32.3c0-21.6,27.6-33.2,27.8-33.3
			c3.5-1.4,5.2-5.4,3.8-8.9c-1.4-3.5-11-4.1-14.5-2.7c-1.5,0.6-30.8,14-30.8,44.8C890.2,493.6,901.8,509.3,916.7,518.1z"/>
	</g>
</g>
<path id="XMLID_17_" class="st4" d="M922.6,432.1c0,0,244.5-102,246-300c1.5-198,187.5-246,187.5-246"/>
</svg>
