<?xml version="1.0" encoding="utf-8"?>
<!-- Generator: Adobe Illustrator 19.0.0, SVG Export Plug-In . SVG Version: 6.00 Build 0)  -->
<svg version="1.1" id="Layer_1" xmlns="http://www.w3.org/2000/svg" xmlns:xlink="http://www.w3.org/1999/xlink" x="0px" y="0px"
	 viewBox="0 0 3000 1500" style="enable-background:new 0 0 3000 1500;" xml:space="preserve">
<style type="text/css">
	.st0{font-family:'MyriadPro-Regular';}
	.st1{font-size:12px;}
	.st2{fill:#103B60;}
	.st3{fill:#003042;}
	.st4{fill-rule:evenodd;clip-rule:evenodd;fill:#003042;}
</style>
<text transform="matrix(1 0 0 1 1475 754)" class="st0 st1">#003A60</text>
<rect id="XMLID_27_" x="-20.3" y="-20.5" class="st2" width="3035.4" height="1535.7"/>
<path id="XMLID_28_" class="st3" d="M389.7,1037.1c9.6,18.6,22,35.5,33.2,53.3c-0.7-0.7-1.5-1.3-2.2-2
	c-12.4-12.6-22.7-26.7-32.3-41.4c-6.9-10.5-13.3-21.3-20-31.9c-0.9-1.3-2.4-2.4-3.8-3.2c-12.8-6.9-25.5-13.8-38.4-20.3
	c-4.3-2.1-9.1-3.1-13.7-4.6c-5.2-1.7-10.7-2.8-15.6-5.2c-3.7-1.8-6.7-5-9.9-7.8c-0.8-0.7-0.8-2.4-1.1-3.6c1.2-0.2,2.3-0.4,3.5-0.5
	c0.5-0.1,0.9,0.1,1.9,0.2c-0.9-0.8-1.4-1.3-1.9-1.8c-2.6-2.6-2.9-5.6,0.2-7.7c3.8-2.6,8.1-4.6,12.3-6.4c1.8-0.8,3-1.7,3.9-3.5
	c8-16.3,20.1-29.4,33.4-41.4c22.1-19.9,46.2-37.2,70.1-54.8c23.1-17.1,46.2-34.1,69.4-51.1c2.2-1.6,4.7-2.8,7.2-4.3
	c0.2,0.8,0.3,1.1,0.3,1.1c-3.4,3.3-5.6,7.6-9.4,10.7c-23.7,19.8-46.7,40.5-68.4,62.5c-4.9,5-9.7,10.3-10.5,17.5
	c-0.4,3.2,0.5,6.7,1.5,9.9c0.6,1.8,0.8,2.9-0.1,4.5c-4,7.1-6.1,14.5-4.4,22.7c0.9,4.6,3.4,7.1,8,8c5.5,1,10.6-0.6,15.8-2.4
	c15.5-5.3,31-10.5,46.5-15.7c1.4-0.5,2.9-0.5,4.4-0.7c0.1,0.3,0.2,0.6,0.4,0.8c-0.7,0.5-1.3,1.4-2,1.4c-3,0.1-4.2,2.4-5.6,4.4
	c-7.5,10.5-12.4,22-12.5,35.2c0,5.7,1,11.1,3.4,16.2c1.3,2.7,3.1,4.6,6.4,4.4c0.8,0,1.6,0.4,2.9,0.7c-4.8,1.7-9,1.9-13.3,0.9
	c-10.6-2.7-20.3-7-29-13.8c-5.1-4-13-2.2-15.9,3.7c-3.1,6.4-2.3,13.2-0.2,19.5c4.2,12.7,11,23.9,20.8,33.1
	c16.4,15.2,34.5,28.2,52.9,40.8c20.6,14.1,41.5,27.8,62.3,41.6c0.7,0.4,1.3,0.9,1.7,1.7c-0.8-0.4-1.6-0.7-2.3-1.2
	c-37.8-23.6-75.6-47.3-113.3-71c-2.9-1.8-5.4-4.5-7.9-6.9c-7.1-6.5-15.3-11.4-23.7-15.9c-3.6-1.9-7.2-3.7-10.9-5.3
	c-1.2-0.5-2.7,0-4.1,0c0.1,1.2-0.2,2.6,0.3,3.5c2.4,4.3,4.3,9.1,7.6,12.7c11.6,13,23.7,25.5,35.6,38.2c0.5,0.6,1,1.1,1.4,1.9
	C411.9,1056.3,401.2,1046.3,389.7,1037.1z"/>
<path id="XMLID_77_" class="st3" d="M287.1,413.7c3.1,9.2,7.4,12.9,13.9,19.9c-3.4-1.4-6.2-2.5-9.6-3.8c1,1.2,1.8,2,2.5,2.8
	c-7.2-1-18.2-9.8-21.4-17.6c-1.3-3.2-3.1-5.2-6.4-6.7c-8-3.6-13.2-10.2-16.4-18.2c-1.3-3.2-3.2-4.7-6.4-5.1
	c-5.1-0.6-16.1-0.9-16.5-2.1c-0.4-1.1,3.2-3,4.4-4.3c-0.8-1-3-2.5-2.8-3.4c0.4-1.2,2.7-1.2,3.9-1.4c10.5-2.5,15.9-8.7,17.1-19.1
	c0.1-1.2,0.9-2.4,1.6-3.4c3.3-4.7,6.7-9.3,9.9-14.1c13.3-19.8,31.4-31.3,55.4-33.3c1.9-0.2,3.8,0,5.6,0.1c1.4,0.1,2.7,0.3,4.2,1
	c-1.1,0.4-2.3,0.8-3.4,1.3c-11.7,4.6-17.9,13.5-12.9,26c2.4,5.8,5.8,11.3,8.6,16.9c2.2,4.3,4.4,8.6,6.4,12.9
	c1.6,3.5,3.3,4.1,6.4,1.7c5.6-4.3,11-8.8,16.6-13.2c0.7-0.6,1.5-1,3-1.9c-0.7,8.5-2,16.3-1.7,24.1c0.3,7.7-0.8,16.5,3.2,23.8l0,0
	c-1.8-1.2-3.7-2.4-5.4-3.7c-2.9-2.4-5.6-5-8.7-7.2c-1.4-1.1-3.4-1.7-5.2-1.9c-2.8-0.4-2.5,1.1-2.8,4.5c-4.4-0.1-4.4,3.3-5.5,4.9
	c-2.4,5.5-2.6,15.8-0.2,23.9c1,3.4,2.1,6.9,3.3,10.3c1.6,4.7-0.8,3.9-3.1,3.9c-2.2,0-5.9-1.2-7.7-2.2c-6.5-3.5-11.7-6.3-17.8-10.4
	c-2.7-1.8-5-3.6-8.4-3.9L287.1,413.7z"/>
<path id="XMLID_118_" class="st4" d="M2196.1,1050C2196.1,1050,2196.1,1050,2196.1,1050c-0.3-0.3-0.8-0.5-1-0.4
	c-0.4,0.2-0.8,0.2-1.2,0.3c-0.1,0-0.3,0-0.3-0.1c0-0.3,0.2-0.8,0.4-1.2c0.1,0,0.1-0.1,0.2-0.1c0.4-0.3,0.5-0.2,0.8-0.7
	c0-0.1,0,0-0.1,0c0,0,0,0,0,0c0.3-0.2,0.1-1-0.3-1.3c-0.4-0.3-0.7-0.7-0.9-1c-0.2-0.5-1-1.2-1.5-1.5c-0.7-0.5-0.7,0.2-1.3-0.3
	c-0.1-0.4-0.4-1.3-0.7-1.5c-0.3-0.3-0.6-0.5-0.9-0.7c-0.3-0.2-0.7-0.5-0.9-0.8c-0.2-0.4-0.4-0.7-0.6-1c0,0,0,0,0,0
	c0-0.3,0-0.9-0.5-1.9c0-2.2,1.3-3.9-0.2-5.4c-1.1-1.1-1.5-2.8-3-4c0-0.1,0.1-0.1,0.1-0.2l0-0.1v-0.1c0-0.5-0.9-2.2-1.3-2.5l-0.3-0.2
	l-0.1,0.1c-0.1-1.6-1.9-2.3-2.7-4.5c-1.7-5.1-4.8-10.2-7.5-12.8c-2.7-4.2-7.5-7.7-14.4-11.3c-4.3-2.3-9.8-5-15.2-6.9
	c-8.5-3.1-20-5.1-26-6.6c-1.7-0.4-4.3-0.9-7.3-1.4c-0.4-0.1-0.8-0.1-1.2-0.2c-9.7-1.5-23-2.7-23.9-0.6c-0.8,1.7-2.3,4-2.8,5
	c-0.2,0.3-0.2,0.6-0.1,0.5c0,0,0,0,0,0c0,0.2-0.1,0.3-0.1,0.5c-0.4,0.3-1,0.4-1.1,1c0,0.2-0.4,0.5-0.6,0.7c-0.3,0.4-0.2,0.9-0.5,1.2
	c-0.2,0.3-0.4,0.1-0.6,0.4c-0.1,0.2-0.1,0.5-0.1,0.6c-0.1,0.3-0.1,0.2-0.4,0.3c-0.2,0.1-0.8,1.1-0.8,1.3c0,0.2-0.1,0.6-0.2,0.7
	c-0.1,0.2-0.2,0.1-0.3,0.2c-0.1,0.1,0,0.3,0,0.4c0,0.2,0,0.1,0,0.2c-0.1,0.2-0.6,0.2-0.5,0.6c0,0.1,0,0.5-0.1,0.5
	c-0.3,0.1-0.1,0.1-0.1,0.3c0,0.2-0.2,0.1-0.1,0.2c0,0,0.1,0.2-0.1,0.2c-0.2-0.1-0.1,0-0.2,0.2c0,0.1,0,0.3,0,0.4
	c-0.2,0.3-0.2,0.6-0.2,0.9c0,0.1,0.1,0.4-0.1,0.5c-0.3,0-0.1,0.6-0.1,0.7c0,0.2-0.1,0.7,0,0.8c0,0.2,0.1,0.4,0,0.6
	c-0.3,0.4,0,0.3,0,0.7c0,0.2,0.1,0.6,0,0.8c0,0.3,0.4,0.6-0.1,0.9c-0.2,0.1,0.3,0.5,0.2,0.8c-0.1,0.2,0.1,0.4,0.1,0.5
	c0,0.2,0.2,0.3,0.3,0.7c0,0.3-0.1,0.4,0,0.8c0.1,0.4,0.4,0.8,0.6,1.3c0.1,0.2,0.1,0.9,0.2,1.1c0.2,0.5,0.3,0.8,0.8,1.2
	c0.2,0.2,0.2,0.5,0.1,0.7c0,0.1,0.4,0.7,0.5,0.6c0.2,0.2,0.3,0.4,0.5,0.6c0.1,0.1,0.3,0.2,0.3,0.2c0,0,0,0,0,0.1
	c-1.1-0.7-2.9-1.6-3.1-1.7c-2.4-1.8-5.1-4.3-6.8-6.5c-0.3-0.4-1.7-1.5-3.1-2.5c-1.7-1.7-3.8-3.6-3.9-3.6
	c-5.8-1.9-10.5,11.6-10.1,15.7c0.4,3.9,3.2,4.7,6.2,7c1.7,1.3,3.6,4.6,4.6,6c0.5,1,1.2,4.1,2.2,4.6c0.7,0.3,1.2-0.2,1.7-0.8
	c0.7-0.2,1.4-0.5,2.1-0.8c1.5-0.5,3.5-1,5.3-1.5c1.5-0.4,2.4-1.2,4.1-0.7c0,0,0.1,0.1,0.1,0.1c-0.7,0.3-1.4,0.9-1.6,2.4
	c-0.1,0.4-0.2,0.7-0.3,1.1c-0.1,0.1-0.2,0.2-0.2,0.4c0,0.1-0.1,0.3-0.1,0.4c-0.6,0.2-1,1.3-0.6,1.6c0.1,0.1,0.1,0.4,0,0.7
	c0,0.1-0.1,0.3-0.1,0.5c-0.2,0.8-0.5,1.9,0.4,2.6c0.2,0.1,0.3,0.1,0.5,0.1c0.2,0.2,0.2,0.3,0.4,0.5c0.2,0.2,0.9,0.5,1.2,0.7
	c-0.2,0.2-0.2,0.5-0.3,0.7l0,0v0c-0.5,1.2,0,2.8,1,4.6c0,0,0,0.1,0.1,0.1c0.3,0.2,0.1,0.4,0.5,0.7l0,0c0.1,0.1,0.1,0.2,0.2,0.3
	c0.9,1.1,1.8,2.4,3.3,3.3c1,0.6,1.6,1.8,2.5,2.6c1,0.8,2.3,2.1,3.5,2.4c1.8,0.4,1.8,1.7,3.1,2.7c1.2,1,2.3,1.3,3.6,2.2
	c1.2,0.9,2.6,2.4,3.2,2.8c4.3,3.2,9.8,6.8,14.3,8c0.2,0.1,1.3,0.2,2.5,0.3c0.4,0.2,0.8,0.4,0.8,0.4c2.2,0.8,6.1,1.3,7.6,1.6
	c2,0.4,4,0.6,6.3,1.2c6,1.6,12,3.3,17.7,3.5c9.6,0.4,18.3-0.9,28.7-4.9c2.7-1,4.9-3.1,5.8-4.1c3.3-0.5,4.6-2.4,8.4-5.9
	c0.7-0.2,1.5-0.5,2-0.8c0.6-0.4,0.8-0.8,1.3-1.1c0.9-0.6,1.5-1,1.9-1.6c0.6-1.2,0.7-2.5,0.9-3.8
	C2196.8,1051.2,2196.5,1050.2,2196.1,1050z M2155.7,1050.3c0,0.2,0.1,0.3,0.1,0.5c0,0,0,0.1,0,0.1c-0.1,0.1-0.2,0.2-0.2,0.3
	C2155.6,1050.9,2155.6,1050.6,2155.7,1050.3z M2182.6,1025.5c-0.1,0.2-0.3,0.2-0.4,0.3c0.2-0.2,0.4-0.2,0.5-0.5L2182.6,1025.5z"/>
<path id="XMLID_97_" class="st3" d="M2636.6,609.7c0-0.7-0.2-1.3-0.1-2c0,0,0-0.1,0-0.1c-0.4-1-1.3-2-2.5-2.2
	c-0.5,0.2-1-0.1-1.5,0.1c0.1-0.8,0.9-1.1,0.9-2c0-1-1.3-1.7-1-2.2c-12.3-5.4-24.2-13.1-37.1-16.2c-5.4-1.4-11-1.8-16.5-2.9
	c-9.7-0.9-19.5-3-29.4,0.2c-0.8,1.2-3.4,0.3-3.2,2.4c-0.8,0.5-2.4-0.1-2.7,1.2c0.1,0.6,0.8,0.5,1.1,1c-0.9,0.4-2.4-0.2-3,0.7
	l1.1,1.1c-0.9,0.7-2.2-0.3-2.7,0.9l0.3,0.7c-0.6,0.3-2.1-0.1-2.4,0.8c0,0.5,0.4,0.7,0.7,1c-1.1,0.3-2.5,0-3.2,1
	c0.2,0.2,0.3,0.5,0.4,0.8c-0.7,0.3-2.4,0-2.3,1.3c-1.9-0.6-2.1,1.6-3.9,1.2c-0.5,0.9-2.1,0.1-2.4,1.2c-0.6,0.2-1.5-0.1-1.8,0.7
	c0.2,1.3-1.6,0.5-1.2,1.8l-0.2,0.3c-0.6,0.1-1.3,0.7-1.9,1.3c-3.8,0.8-6.7,3.1-9.7,5.2c-1.4,2.4-2.9,4.3-3.1,7
	c-0.4,3,1.3,5.9,2.8,8.3c-0.7,0.1-1.5,0.1-2.2,0.1c-1.1-0.2-2.2-0.3-3.3-0.5c-1.6-0.3-3.2-0.7-4.9-0.7c-4.5-1.1-9.5-0.6-14.4,0.3
	c-0.6,0.3-1.9,0.3-1.5,1.3c0.5,0.7-0.4,1.1-0.2,1.6c0.9,2.4,2,5.1,4.5,6.3c0.2,0.3,0.4,0.5,0.6,0.8c1.1,1.5,1.9,3,3.6,4
	c0.5,1.4,1.6,1.5,2.1,2.9c1.3,1,4.3,0.8,3.6,3.1c-0.2,1,1.1,2.2,0.6,3.4c1.5,1,0.9,3.5,2.9,4c1.3,0.5,2.4,0.2,3.3-0.4l0.2,0.1l1-0.9
	c0.8-0.7,1.6-1.4,2.3-2c2.3-1.7,4.1-4.6,6.6-6.1l1.5-0.6c0,0,0.3-0.1,0.8-0.3c0.4-0.1,0.8-0.1,1.2-0.1c-1.2,2.8-2.7,6.5-0.8,9.4
	c0.1,0.2,0.2,0.3,0.3,0.4c0,0,0,0,0,0c0,0,0,0,0,0c0.3,0.3,0.6,0.6,1,0.9c1.5,1.2,3.3,1.9,5,2.2l0.7,0.3c5.3-0.2,9.3-3.2,13.5-5.4
	c0.8-0.7,1.5-1.5,1.9-2.5c0.1-0.6-0.1-1.1-0.4-1.6l-0.2-0.7c1.4,0.3,3.2,0.6,5.2,0.9c3.3,0.7,6.8,1.2,10.1,1.9
	c5.1,0.5,9.3,1.3,14.7,0.4c-1.8,3.7-8.6,4.7-7.1,10.2c-1.1,0.8-0.6,2.2-0.1,3.1c1.4,1.7,3.6,0.5,5.1-0.1c1.2-1,2.7-1.6,4.1-2.4
	c2-1.8,3.8-3.5,5-6c1.8-2.6,4.3-4.3,5.1-7.4c9.6-0.7,16.4-7,24.4-10.8c5.4-3.4,10.2-7.7,16-10.5c2.1-2.9,5.6-3.6,7.7-6.3l4.1-3.1
	c0.6-0.4,0.8-0.9,0.8-1.5l0.2-0.4C2636.8,609.6,2636.7,609.6,2636.6,609.7z M2517.1,622.4c-0.3,0.5-0.4,0.8-0.4,0.8s-0.1,0-0.2,0
	L2517.1,622.4z M2513.6,606.8c-0.4,0.4-0.8,0.8-1.1,1.3l0,0C2512.8,607.5,2513.2,607.1,2513.6,606.8z M2512.2,608.6
	c-0.2,0.2-0.3,0.5-0.5,0.7c0-0.3,0.1-0.5,0.3-0.7C2512.1,608.6,2512.2,608.6,2512.2,608.6z M2511.2,610.2c0,0,0.1,0,0.1,0
	c-0.3,0.6-0.5,1.2-0.7,1.9C2510.8,611.5,2510.7,610.7,2511.2,610.2z M2510.5,612.8c-0.1,0.3-0.1,0.6-0.1,0.9
	C2510.2,613.4,2510.2,613,2510.5,612.8z M2511.9,620.5c-1.1-1.9-2.3-3.9-1.6-6.1c0,0,0,0,0,0c-0.1,2.5,0.8,4.5,1.9,6
	C2512.1,620.4,2512,620.4,2511.9,620.5z M2513.7,622.6l-1.7-1.6c0.1-0.1,0.3-0.2,0.4-0.3c0.7,0.9,1.5,1.6,2.1,2.1
	c-0.2,0-0.4-0.1-0.6-0.1C2513.9,622.7,2513.8,622.7,2513.7,622.6z M2492.7,621.2c2.4-0.3,4.7-0.2,6.9,0l0.3,0.5
	c-5.7-1.2-11.2,0.1-13.2,0.7C2488.4,621.1,2490.9,621.8,2492.7,621.2z M2486.5,623.6l2.3,3.9l-0.4,0c-1.2-0.8-1.9-2.1-2.1-3.4
	l0.4-0.1C2486.6,624,2486.5,623.8,2486.5,623.6z M2488.4,627.9c0.1,0,0.3,0,0.4-0.1l1.1,1.9C2489.3,629.2,2488.4,628.8,2488.4,627.9
	z M2492.8,632.8l1.2,1.3c0,0,0,0,0,0C2493.4,633.8,2493,633.3,2492.8,632.8z M2494.9,635.1l1.1,1.2c0,0-0.1,0-0.1,0
	C2495.4,636,2495.1,635.6,2494.9,635.1z M2496.5,636.9l1.3,1C2497.3,637.7,2496.7,637.4,2496.5,636.9z M2500.8,641.3
	c0.2-0.1,0.3-0.2,0.4-0.3l0.5,2.1l-0.2,0.2C2501.4,642.6,2500.4,642,2500.8,641.3z M2501.5,644.9l-0.2-1.1c0.2-0.1,0.3-0.3,0.5-0.4
	l0.7,2.6C2502.2,645.8,2501.8,645.2,2501.5,644.9z M2505.9,648.2c-1.1,0.1-2.3,0.1-3-0.8L2505.9,648.2
	C2505.9,648.2,2505.9,648.2,2505.9,648.2z M2521.7,638.5c0,0-2.5,3.2-2.7,6.5C2518.6,642.5,2519.6,640,2521.7,638.5z M2524.7,650.7
	c2.8,0.4,6.1-0.1,8.8-1.1C2530.9,650.8,2527.5,651.7,2524.7,650.7z M2553.9,643.4c2.6,0.3,5.1,0.6,7.4,0.8
	C2558.8,644.3,2556.3,643.8,2553.9,643.4z"/>
<path id="XMLID_76_" class="st3" d="M2507.3,959.4c-0.2-0.7-0.2-1.4-0.6-1.9c0,0,0-0.1,0-0.1c0-1.1,0.7-2.4,1.7-3
	c0.6,0,0.9-0.4,1.5-0.4c-0.3-0.7-1.3-0.8-1.6-1.7c-0.4-1,0.8-2,0.2-2.5c10.5-9.3,19.8-20.8,31.6-28c4.9-3.2,10.4-5.4,15.4-8.3
	c9.4-4,18.4-9.4,29.4-9.5c1.2,0.9,3.5-0.8,4,1.3c1,0.3,2.4-0.9,3,0.3c0.1,0.6-0.6,0.7-0.8,1.3c1.1,0.1,2.3-1,3.2-0.3l-0.7,1.4
	c1.1,0.4,2.1-1,3,0l-0.1,0.8c0.7,0,2.1-0.8,2.6,0.1c0.1,0.5-0.1,0.8-0.3,1.2c1.2,0,2.5-0.8,3.5-0.1c-0.1,0.3-0.1,0.6-0.1,0.9
	c0.8,0,2.4-0.8,2.7,0.5c1.6-1.2,2.6,0.9,4.3-0.2c0.8,0.7,2.1-0.6,2.8,0.4c0.7,0.1,1.4-0.6,2,0.1c0.2,1.3,1.8-0.1,1.7,1.4l0.3,0.2
	c0.6-0.1,1.6,0.3,2.3,0.6c4.1-0.5,7.7,0.8,11.4,1.8c2.2,1.8,4.3,3.2,5.4,5.8c1.4,2.8,0.7,6.2-0.1,9c0.8-0.1,1.5-0.4,2.2-0.7
	c1-0.5,2-1,3.1-1.5c1.5-0.8,3-1.7,4.7-2.3c4.1-2.5,9.3-3.7,14.4-4.5c0.7,0,2-0.3,2,0.8c-0.2,0.8,0.7,0.9,0.7,1.5
	c-0.1,2.7-0.3,5.6-2.4,7.6c-0.1,0.3-0.2,0.6-0.3,0.9c-0.6,1.8-0.9,3.5-2.2,5.1c-0.1,1.5-1.1,2-1.1,3.5c-0.9,1.4-4,2.2-2.6,4.3
	c0.5,0.9-0.4,2.5,0.6,3.5c-1.1,1.5,0.2,3.8-1.6,4.8c-1.1,0.9-2.3,1-3.5,0.7l-0.2,0.1l-1.3-0.6c-1-0.4-2-0.9-2.9-1.1
	c-2.9-0.9-5.6-3.1-8.5-3.7l-1.7-0.1c0,0-0.3,0-0.8,0c-0.4,0.1-0.9,0.1-1.3,0.3c2.1,2.3,4.8,5.4,3.9,9c0,0.2-0.1,0.4-0.2,0.5
	c0,0,0,0,0,0c0,0,0,0,0,0c-0.2,0.4-0.4,0.8-0.7,1.2c-1.1,1.7-2.6,3-4.2,3.8l-0.6,0.5c-5.4,1.5-10.3-0.1-15.3-0.8
	c-1.1-0.4-2-1-2.7-1.9c-0.3-0.5-0.3-1.2-0.1-1.7l-0.1-0.7c-1.4,0.7-3.1,1.6-4.9,2.6c-3.1,1.8-6.4,3.4-9.4,5.2
	c-4.9,2.1-8.8,4.4-14.6,5.2c3,3,10.1,1.8,10.5,7.6c1.3,0.5,1.3,2,1.1,3c-0.9,2.1-3.4,1.7-5.1,1.6c-1.6-0.5-3.2-0.7-4.8-1
	c-2.6-1.1-5-2.2-7-4.2c-2.7-2-5.7-2.8-7.6-5.6c-9.8,2.4-18.6-1.4-27.9-2.5c-6.5-1.5-12.7-4.1-19.4-5c-3-2.2-6.7-1.7-9.7-3.6
	l-5.1-1.7c-0.8-0.2-1.1-0.7-1.3-1.2l-0.4-0.3C2507,959.3,2507.1,959.4,2507.3,959.4z M2630.6,932.4c0.4,0.4,0.7,0.6,0.7,0.6
	s0.1,0,0.2-0.1L2630.6,932.4z M2628.9,916.1c0.5,0.3,1,0.6,1.5,0.9l0,0C2630,916.4,2629.4,916.2,2628.9,916.1z M2630.9,917.3
	c0.2,0.2,0.5,0.4,0.7,0.6c-0.1-0.2-0.3-0.5-0.6-0.6C2631,917.3,2630.9,917.3,2630.9,917.3z M2632.4,918.5c0,0-0.1,0-0.1,0
	c0.5,0.5,0.9,1,1.3,1.6C2633.2,919.6,2633.1,918.9,2632.4,918.5z M2634,920.8c0.2,0.3,0.3,0.5,0.4,0.8
	C2634.5,921.3,2634.3,920.9,2634,920.8z M2635.1,928.8c0.5-2.2,1-4.6-0.4-6.5c0,0,0,0,0,0c0.9,2.4,0.7,4.7,0.1,6.5
	C2634.9,928.8,2635,928.8,2635.1,928.8z M2634,931.5l1.1-2.1c-0.2-0.1-0.3-0.1-0.5-0.2c-0.4,1.1-1,2.1-1.4,2.8
	c0.2-0.1,0.4-0.2,0.6-0.3C2633.8,931.7,2633.9,931.6,2634,931.5z M2654.5,923.2c-2.5,0.5-4.7,1.3-6.9,2.3l-0.2,0.6
	c5.3-3.1,11.2-3.6,13.4-3.7C2658.7,921.7,2656.4,923.1,2654.5,923.2z M2661.5,923.5l-1,4.6l0.4-0.1c1-1.2,1.2-2.7,0.9-4l-0.4,0.1
	C2661.5,923.9,2661.5,923.7,2661.5,923.5z M2660.9,928.3c-0.2,0-0.3,0.1-0.5,0.1l-0.5,2.3C2660.5,929.9,2661.2,929.2,2660.9,928.3z
	 M2658.2,934.5l-0.7,1.6c0,0,0,0,0,0C2657.9,935.6,2658.2,935.1,2658.2,934.5z M2656.9,937.5l-0.7,1.5c0,0,0.1,0,0.1,0
	C2656.7,938.5,2656.8,938,2656.9,937.5z M2655.9,939.7l-1,1.4C2655.3,940.8,2655.8,940.3,2655.9,939.7z M2653,945.5
	c-0.2,0-0.4-0.1-0.5-0.1l0.1,2.2l0.3,0.1C2652.9,946.9,2653.7,946,2653,945.5z M2653.5,949.2l-0.2-1.1c-0.2-0.1-0.4-0.1-0.6-0.2
	l0.2,2.8C2653.2,950.3,2653.3,949.6,2653.5,949.2z M2650.2,953.9c1.1-0.3,2.3-0.6,2.7-1.7L2650.2,953.9
	C2650.2,953.9,2650.2,953.9,2650.2,953.9z M2631.3,949.6c0,0,3.6,2.3,4.8,5.5C2635.7,952.5,2633.9,950.4,2631.3,949.6z
	 M2632.3,962.5c-2.7,1.3-6.1,2-9.2,1.8C2626.1,964.6,2629.9,964.4,2632.3,962.5z M2600.8,965c-2.5,1.2-4.9,2.3-7.1,3.2
	C2596.2,967.5,2598.5,966.2,2600.8,965z"/>
<path id="XMLID_88_" class="st4" d="M1994.7,165c-1.5,0.8-12.6,4.8-12.6,4.8s0-9.2-4.6-13.2c-4.6-4-8.5-6.6-5.5-7.2
	c3-0.6,7.2-1.2,9.1-0.3c2,0.8,4.8,3.4,7.6,6.6C1991.4,159,1994.5,164.9,1994.7,165L1994.7,165z M1978.3,624
	c13-5,36.7-13.3,57.6-20.5c5.3,17.8,17.3,55.3,26.4,68.2c12.2,17.1,17,25.6,36.4,18.9c19.4-6.6,102.4-43.9,102.4-43.9
	s6.6-1.4,10.1-2.2c3.6-0.8,15.9-8.1,19.3-7.6c3.5,0.5,7.4,2.2,11.8,4.9c4.4,2.8,10.7,6.3,20.1,10.3c9.4,3.9,36.1,23.9,38.5,28.1
	c14,23.9,32.8,62.2,37.4,60c4.6-2.2,54.2-71.9,47.7-77c-64.6-49.9-115.3-55.2-119.3-66.6c-4-11.4-12.5-20.9-18.9-23.1
	c-6.4-2.2-9.6-0.3-13.8,2.1c-4.2,2.4-8.1,9.5-9.6,13c-1.5,3.5-6,12.2-8.8,13.4c-2.8,1.1-9.5,7.3-9.7,6.1c-0.2-1.2-2.8-7.6-4.4-7.6
	c-1.6,0-2.7,1.6-3,3.4c-0.3,1.7-1.4,5-4,5.2c-1.5,0.1-13.4,1.4-26,3.3c-10.7-6.9-22.5-15.1-26.7-20.2c-8.3-9.9-8.1-8.2-9.3-16.7
	c-1.2-8.5-7.1-12.9-9.9-20.8c-2.8-7.9-8.6-14.5-13.1-16.1c-4.5-1.6-6.6-0.2-9.6,1.4c-0.5,0.3-1.1,0.7-1.6,1.2
	c-1.7-16.9-3.4-32.3-4.3-35.7c-2.1-8.3-1.7-9-1.7-9s20.3,4.4,36.5-5.5c16.1-9.9,25-23.2,25-23.2s-40.1-145.6-39.7-146.5
	c0.4-1,3.7-2.2,5.1-4.5c1.5-2.4-2.7-25.6-4.4-29.1c-1.8-3.5-0.4-3.4-2.7-3.9c-2.3-0.5-8.9-0.7-8.9-0.7l-7.2-27.5
	c0,0,1.7-19.6-8.7-32c-10.5-12.5-18.3-16.9-18.3-16.9s-16.6-12.7-23.5-14.9c-6.9-2.2-11.3-5-11.3-5s-1.5-5.2-2.6-6.4
	c-1.1-1.2,0.4,0.2-2.5-4c-2.9-4.2-2.5-4.5-5-5.6c-2.6-1.1-4.4-1.1-4.4-1.1s-2.8-5.3-4.9-7.1c-2-1.8-2.8-1.6-2.8-1.6s2.6-2.8-0.3-3.8
	c-2.8-1-7.3-0.8-7.3-0.8s-10-8.6-15.6-9.5c-5.6-1-10.2-5.4-16.9-4.8c-6.7,0.6-8.8,1.2-8.8,1.2s-6.9-5.6-16.6-7.2
	c-9.7-1.5-16.7-0.3-16.7-0.3s-24.5-0.4-36.1,9.6c-11.5,9.9-11.7,24.6-13.5,28.9c-1.8,4.3-2.5,11.4-2.5,11.4s-6.2-0.2-7.9,0.4
	c-1.7,0.5-6,17.7-6.6,21.1c-0.5,3.5-2.4,6.2,0.7,6.5c3.1,0.4,6.8,2.6,6.8,2.6s-3.5,4.1-2.5,5.9c1.1,1.8,4.8,2.9,5.1,4.9
	c0.3,2-1.3,4.6-1.3,4.6c-1-0.4-3.5-0.8-3.5-0.8s-1.5-2.7-2.1-3c-0.6-0.2-3.1,0.4-3.1,0.4l-1.4,3.3l-3.6,2.5c0,0,0.2-0.5-4.7-1.2
	s-7.8,0-7.8,0s2.4-4.9,3.1-4.9c0.7,0,4.3-0.4,7.3-1.3c2.9-1,5.9-3.1,6-4.3c0.2-1.2,0.7-2.6-1-2.4c-1.7,0.2-15.5,3.4-17.7,4.1
	c-2.2,0.7-4.6,2.2-5.4,3.5c-0.8,1.3-1.8,7.7-1.8,7.7s-2.7,2.8-3.4,3.8c-0.7,1-0.9,3-0.9,3s-1.7,2.5-2.4,3.7
	c-0.6,1.2-0.8,3.5-0.8,3.5l0.8,2c0,0-1.9,2.8-1.8,4c0.1,1.2,0.6,4.1,1,5.6c0.4,1.5-0.2,7.9-0.6,12.3c-0.4,4.5-9.2,49.6-12.9,68.8
	c-3.7,19.2-4,40.3-0.6,44.5c3.3,4.2,14.8,2.7,17,2.5c2.2-0.2,3.3-0.2,3.3-0.2l19.6,7.1c0,0,2.2,3.5,5.2,4c3,0.6,11-0.1,11-0.1l1.2,6
	c0,0-25.4,17.6-26.1,19.1c-0.7,1.4,1.3,12.8,6.9,19.3c5.6,6.5,9.7,9.4,11.6,8.1c1.9-1.3,4.3-5.3,4.3-5.3s13.5-4.7,13.5-6.8
	c0-2.1-3.3-12-5.3-13.3c-2-1.3-6.6,0.9-6.6,0.9l-2.4-4.7c0,0,13.7-8.5,17.2-10.1c3.4-1.6,3.8-3.5,5-3.7c1.2-0.2,2.9,0.8,3.3,3.7
	c0.4,2.9-1.7,19.6-0.5,20.5c1.2,1-2.4,3.4-3.6,5.2c-1.2,1.8-2.2,6.4,0.7,5.4c3-1,5.7-2.5,6.9-1c1.2,1.4,2.4,7.9,2.4,7.9
	s-4.4,6-5.7,7.5c-1.3,1.5-5.4,4.2-4.9,7.9c0.5,3.7,3,8.2,5.7,6.3c2.6-1.9,6.9-2.7,6.9-2.7s-4.4,9.9-2,12.1c2.3,2.1,5.5,3.5,7,0.9
	c1.6-2.6,2.8-2.8,2.8-2.8s1.7,6.5,3.5,6.1c1.8-0.4,2.8-2.3,4.1-2.2c1.3,0.1,1.8-0.4,3.7,0.6c1.9,1,2,3.4,3.7,4.3
	c1.7,0.9,3.9-0.4,4.6-2.2c0.7-1.8-0.2-2.2,1.8-4.3c2.1-2.1,1.1-3.7,3.6-2.4c2.5,1.3,2.9,0.8,1.8,4.5c-1.1,3.7-12.5,21.5-12.5,21.5
	s-15.1,5.7-18.2,10.8c-3.1,5.2-17.7,35.5-16.6,39.6c1,4.1,5.1,14.2,13.4,14.4c8.2,0.2,16.1-7.6,16.1-7.6l8.6-16
	c0,0,10-21.7,9.1-23.4c-0.9-1.8-3-10.5-2.6-11.9c0.4-1.5,8-26.9,10.5-24.9c2.4,1.9,7.5,6.4,7.1,12.7c-0.3,6.3-21,54.5-24.5,75.1
	c-3.6,20.7-7.3,37.1-7.3,37.1s-0.8,8.5,2.5,14.9c3.3,6.5,4.4,11.5,26,9.5C1960.2,635.3,1971.2,629.3,1978.3,624L1978.3,624z
	 M2102.4,584.3c1,0.5,2.1,1.1,3.2,1.8c3,1.9,7.4,4.4,14,7.1c6.5,2.7,24.1,17.4,26.7,19.5c0.6,0.5,1.5,1.8,2.6,3.5
	c-3,0.8-5.6,1.6-7.6,2.5c-12.4,5.4-31.1,17-33.1,15.2c-2-1.8-4.9-41.1-4.9-41.1S2102.9,589.6,2102.4,584.3L2102.4,584.3z M1995,242
	c0.1-0.2,6.3,0.8,7.3-0.4c1-1.2,1.8-0.4,2.6-5.1c0.8-4.7,1.1-8.1,3.6-11.4c2.5-3.3,1.9-9.6,1.4-12.1c-0.5-2.5-2.6-9.6-2.6-9.6
	l-12,1.2c0,0-1.8-13.9-0.8-15.1c1-1.2,8-2.6,8-2.6l-2.9-14.6c0,0-11.5,1.6-13.5,2.9c-1.9,1.3-1.7,1.4-1.7,3.4
	c0,2.1-2.2,10.2-3.6,16.9c-1.5,6.8-9.5,18.9-10.4,21c-0.9,2.2,0.9,8.2,1.5,11.7c0.6,3.5,0.6,6.3,3,9.8
	C1977.4,241.5,1991.1,242.4,1995,242L1995,242z M1886.5,263.2C1886.5,263.2,1886.5,263.2,1886.5,263.2
	C1886.5,263.2,1886.5,263.2,1886.5,263.2L1886.5,263.2z M1901.1,263.5c0,1.4-11.3,11.4-15.4,18c-4.1,6.6-5,4.3-10.2,7.7
	c-5.1,3.4-9.7,15.3-11.9,24.1c-2.3,8.7-19.7,18.5-19.7,18.5s-3.4-30.5-2.3-34.2c1.1-3.7,9.2-25.7,9.2-25.7s1.9,0.4,3,1.7
	c1,1.4,6.9,7.7,9.3,6.9c2.4-0.8,4.3-2.1,4.3-2.1s2.8-1.1,5-0.9c2.2,0.2,8.1-1.7,9.4-3.7c1.3-2,4.4-10,4.7-10.7
	c0.2,0.1,2.3,0.2,5.5,0.1c3.5-0.1,4.9-1.3,7.1-1.4C1901.2,261.7,1901.2,262.2,1901.1,263.5L1901.1,263.5z M1992.6,579.7
	c0,0,18.1-24.5,20.6-27.1c0.2,0.5,4.4,2.8,7,5.9c2.6,3.2,4.4,11.5,5.2,12.8C2026.3,572.6,1992.6,579.7,1992.6,579.7L1992.6,579.7z
	 M1881.9,393c0,0,8.9-6.9,11.9-7.5c0,0-0.1,4.6,0.2,8.4c0.3,3.8-0.1,6.9-0.3,9.1c-0.2,2.2-1.7,2.3-3.2,1.7c-1.6-0.7-4.5-1.4-4.8-2.9
	C1885.3,400.2,1881.9,393,1881.9,393L1881.9,393z M1851.8,373.3c4.2-3.5,14.3-12.7,20.9-17.3c6.6-4.6,17.5-15.3,17.5-15.3
	s-1.5,6.8-2.9,11.3c-1.4,4.5-4.7,14.6-3.4,18c1.4,3.3-2.2,4.1-8.6,8.4c-6.4,4.2-19.9,8.3-20.9,9.2c-1.1,0.9-10.4-3.2-11.5-3.9
	C1842.9,383.4,1847.6,376.8,1851.8,373.3z"/>
</svg>
