<?xml version="1.0" encoding="utf-8"?>
<!-- Generator: Adobe Illustrator 19.0.0, SVG Export Plug-In . SVG Version: 6.00 Build 0)  -->
<svg version="1.1" xmlns="http://www.w3.org/2000/svg" xmlns:xlink="http://www.w3.org/1999/xlink" x="0px" y="0px"
	 viewBox="0 0 3000 1500" style="enable-background:new 0 0 3000 1500;" xml:space="preserve">
<style type="text/css">
	.st0{fill:#003042;}
	.st1{fill:#06232C;}
	.st2{fill-rule:evenodd;clip-rule:evenodd;fill:#06232C;}
</style>
<g id="Layer_2">
	<rect id="XMLID_27_" x="-20.3" y="-20.5" class="st0" width="3035.4" height="1535.7"/>
</g>
<g id="Layer_1">
	<path id="XMLID_28_" class="st1" d="M497.1,1220c7.4,14.3,16.9,27.3,25.6,41c-0.6-0.5-1.2-1-1.7-1.6c-9.5-9.7-17.5-20.6-24.9-31.8
		c-5.3-8.1-10.2-16.4-15.4-24.5c-0.7-1-1.8-1.9-2.9-2.5c-9.8-5.3-19.6-10.6-29.6-15.6c-3.3-1.7-7-2.4-10.5-3.5c-4-1.3-8.2-2.2-12-4
		c-2.8-1.4-5.2-3.8-7.6-6c-0.6-0.6-0.6-1.8-0.9-2.7c0.9-0.1,1.8-0.3,2.7-0.4c0.3,0,0.7,0.1,1.4,0.2c-0.7-0.6-1.1-1-1.5-1.4
		c-2-2-2.2-4.3,0.2-5.9c2.9-2,6.2-3.5,9.5-5c1.4-0.6,2.3-1.3,3-2.7c6.2-12.5,15.4-22.6,25.7-31.9c17-15.3,35.6-28.6,53.9-42.2
		c17.8-13.2,35.6-26.3,53.4-39.3c1.7-1.2,3.6-2.1,5.5-3.3c0.1,0.6,0.3,0.8,0.2,0.9c-2.6,2.6-4.3,5.8-7.3,8.3
		c-18.3,15.3-35.9,31.2-52.7,48.1c-3.8,3.8-7.4,7.9-8.1,13.5c-0.3,2.5,0.4,5.2,1.2,7.6c0.5,1.4,0.6,2.2-0.1,3.4
		c-3,5.4-4.7,11.2-3.4,17.5c0.7,3.5,2.6,5.5,6.1,6.1c4.2,0.8,8.2-0.5,12.1-1.8c11.9-4.1,23.9-8.1,35.8-12.1c1.1-0.4,2.3-0.4,3.4-0.6
		c0.1,0.2,0.2,0.4,0.3,0.6c-0.5,0.4-1,1-1.5,1.1c-2.3,0.1-3.2,1.8-4.3,3.4c-5.8,8.1-9.5,16.9-9.6,27.1c0,4.3,0.8,8.5,2.6,12.5
		c1,2.1,2.4,3.5,5,3.4c0.6,0,1.2,0.3,2.3,0.5c-3.7,1.3-7,1.5-10.2,0.7c-8.1-2.1-15.7-5.4-22.3-10.6c-3.9-3.1-10-1.7-12.2,2.8
		c-2.4,4.9-1.7,10.2-0.1,15c3.2,9.7,8.5,18.4,16,25.5c12.6,11.7,26.6,21.7,40.7,31.4c15.9,10.9,32,21.4,48,32c0.5,0.3,1,0.7,1.3,1.3
		c-0.6-0.3-1.2-0.5-1.8-0.9c-29.1-18.2-58.2-36.4-87.2-54.7c-2.3-1.4-4.1-3.5-6.1-5.3c-5.4-5-11.7-8.8-18.2-12.2
		c-2.7-1.5-5.5-2.9-8.4-4.1c-0.9-0.4-2.1,0-3.1,0c0.1,0.9-0.2,2,0.2,2.7c1.8,3.3,3.3,7,5.8,9.8c9,10,18.3,19.6,27.4,29.4
		c0.4,0.4,0.8,0.9,1.1,1.4C514.2,1234.7,506,1227,497.1,1220z"/>
	<path id="XMLID_77_" class="st1" d="M418.2,740.2c2.4,7.1,5.7,9.9,10.7,15.3c-2.6-1-4.8-1.9-7.4-2.9c0.8,0.9,1.4,1.5,1.9,2.1
		c-5.5-0.7-14-7.6-16.5-13.6c-1-2.5-2.4-4-4.9-5.2c-6.2-2.8-10.2-7.8-12.6-14c-1-2.5-2.5-3.6-4.9-3.9c-3.9-0.5-12.4-0.7-12.7-1.6
		c-0.3-0.9,2.5-2.3,3.4-3.3c-0.6-0.8-2.3-1.9-2.1-2.6c0.3-1,2.1-0.9,3-1.1c8.1-1.9,12.3-6.7,13.1-14.7c0.1-0.9,0.7-1.9,1.2-2.6
		c2.5-3.6,5.2-7.2,7.6-10.9c10.2-15.2,24.2-24.1,42.6-25.7c1.4-0.1,2.9,0,4.3,0.1c1.1,0.1,2.1,0.2,3.3,0.7c-0.9,0.3-1.7,0.6-2.6,1
		c-9,3.5-13.8,10.4-9.9,20c1.8,4.5,4.4,8.7,6.7,13c1.7,3.3,3.4,6.6,4.9,10c1.2,2.7,2.6,3.2,5,1.3c4.3-3.3,8.5-6.8,12.7-10.2
		c0.5-0.4,1.2-0.8,2.3-1.5c-0.5,6.5-1.6,12.6-1.3,18.5c0.2,5.9-0.6,12.7,2.5,18.3l0,0c-1.4-1-2.8-1.8-4.2-2.9
		c-2.3-1.8-4.3-3.9-6.7-5.6c-1.1-0.8-2.6-1.3-4-1.5c-2.2-0.3-1.9,0.8-2.2,3.5c-3.4-0.1-3.4,2.6-4.2,3.8c-1.9,4.2-2,12.2-0.2,18.4
		c0.8,2.7,1.6,5.3,2.5,7.9c1.2,3.7-0.7,3-2.4,3c-1.7,0-4.5-0.9-6-1.7c-5-2.7-9-4.8-13.7-8c-2.1-1.4-3.9-2.7-6.4-3L418.2,740.2z"/>
	<path id="XMLID_118_" class="st2" d="M2351.5,1229.9C2351.5,1229.9,2351.5,1229.9,2351.5,1229.9c-0.3-0.2-0.6-0.4-0.8-0.3
		c-0.3,0.1-0.6,0.2-0.9,0.2c0,0-0.2,0-0.2-0.1c0-0.2,0.1-0.6,0.3-0.9c0,0,0.1-0.1,0.1-0.1c0.3-0.2,0.4-0.2,0.6-0.5c0,0,0,0-0.1,0
		c0,0,0,0,0,0c0.2-0.2,0.1-0.8-0.2-1c-0.3-0.2-0.6-0.5-0.7-0.8c-0.2-0.4-0.7-0.9-1.1-1.2c-0.6-0.4-0.5,0.1-1-0.2
		c-0.1-0.3-0.3-1-0.5-1.2c-0.2-0.2-0.5-0.4-0.7-0.5c-0.2-0.2-0.5-0.4-0.7-0.6c-0.2-0.3-0.3-0.5-0.5-0.8c0,0,0,0,0,0
		c0-0.2,0-0.7-0.4-1.4c0-1.7,1-3-0.1-4.1c-0.8-0.9-1.2-2.1-2.3-3.1c0,0,0.1-0.1,0.1-0.1l0-0.1v-0.1c0-0.4-0.7-1.7-1-2l-0.2-0.2
		l-0.1,0.1c-0.1-1.3-1.5-1.7-2.1-3.5c-1.3-4-3.7-7.9-5.7-9.8c-2-3.2-5.7-5.9-11.1-8.7c-3.3-1.7-7.5-3.8-11.7-5.3
		c-6.6-2.4-15.4-4-20-5.1c-1.3-0.3-3.3-0.7-5.6-1c-0.3-0.1-0.6-0.1-0.9-0.1c-7.5-1.1-17.7-2-18.4-0.4c-0.6,1.3-1.7,3.1-2.2,3.8
		c-0.1,0.3-0.2,0.4-0.1,0.4c0,0,0,0,0,0c0,0.1-0.1,0.2-0.1,0.4c-0.3,0.2-0.8,0.3-0.8,0.7c0,0.2-0.3,0.4-0.5,0.5
		c-0.2,0.3-0.2,0.7-0.4,0.9c-0.2,0.2-0.3,0.1-0.4,0.3c-0.1,0.1-0.1,0.3-0.1,0.5c-0.1,0.2-0.1,0.2-0.3,0.2c-0.2,0.1-0.6,0.8-0.6,1
		c0,0.1-0.1,0.4-0.2,0.5c-0.1,0.1-0.1,0.1-0.2,0.1c-0.1,0.1,0,0.2,0,0.3c0,0.1,0,0.1,0,0.2c-0.1,0.2-0.4,0.2-0.4,0.4
		c0,0.1,0,0.4-0.1,0.4c-0.2,0.1-0.1,0.1-0.1,0.2c0,0.1-0.1,0-0.1,0.1c0,0,0.1,0.2,0,0.1c-0.2-0.1-0.1,0-0.2,0.1c0,0.1,0,0.2,0,0.3
		c-0.2,0.2-0.2,0.4-0.1,0.7c0,0.1,0.1,0.3-0.1,0.3c-0.2,0-0.1,0.5-0.1,0.6c0,0.1-0.1,0.5,0,0.6c0,0.2,0.1,0.3,0,0.5
		c-0.3,0.3,0,0.3,0,0.6c0,0.2,0,0.5,0,0.6c0,0.3,0.3,0.4-0.1,0.7c-0.1,0.1,0.3,0.4,0.1,0.6c-0.1,0.2,0,0.3,0.1,0.4
		c0,0.2,0.2,0.2,0.2,0.5c0,0.3-0.1,0.3,0,0.6c0.1,0.3,0.3,0.6,0.4,1c0,0.2,0.1,0.7,0.1,0.9c0.2,0.4,0.2,0.6,0.6,0.9
		c0.2,0.1,0.2,0.4,0.1,0.6c0,0.1,0.3,0.6,0.4,0.5c0.2,0.1,0.2,0.3,0.4,0.4c0.1,0,0.2,0.1,0.2,0.2c0,0,0,0,0,0.1
		c-0.8-0.5-2.2-1.2-2.4-1.3c-1.8-1.4-3.9-3.3-5.2-5c-0.2-0.3-1.3-1.1-2.4-1.9c-1.3-1.3-2.9-2.8-3-2.7c-4.4-1.5-8.1,8.9-7.8,12.1
		c0.3,3,2.4,3.6,4.8,5.4c1.3,1,2.8,3.5,3.5,4.6c0.4,0.8,0.9,3.2,1.7,3.5c0.6,0.2,0.9-0.2,1.3-0.6c0.6-0.2,1.1-0.4,1.6-0.6
		c1.2-0.4,2.7-0.8,4.1-1.2c1.1-0.3,1.9-0.9,3.1-0.5c0,0,0,0,0.1,0.1c-0.6,0.2-1,0.7-1.3,1.9c-0.1,0.3-0.1,0.5-0.2,0.8
		c-0.1,0.1-0.1,0.2-0.2,0.3c0,0.1-0.1,0.2-0.1,0.3c-0.5,0.1-0.7,1-0.4,1.3c0.1,0.1,0.1,0.3,0,0.5c0,0.1-0.1,0.3-0.1,0.4
		c-0.2,0.6-0.4,1.4,0.3,2c0.1,0.1,0.3,0.1,0.4,0.1c0.1,0.1,0.1,0.3,0.3,0.4c0.2,0.2,0.7,0.3,0.9,0.5c-0.1,0.2-0.2,0.4-0.2,0.6l0,0v0
		c-0.4,1,0,2.2,0.8,3.5c0,0,0,0.1,0,0.1c0.2,0.1,0.1,0.3,0.4,0.5l0,0c0.1,0.1,0.1,0.2,0.2,0.2c0.7,0.9,1.4,1.9,2.6,2.5
		c0.8,0.5,1.2,1.4,2,2c0.7,0.6,1.7,1.6,2.7,1.8c1.4,0.3,1.4,1.3,2.4,2.1c0.9,0.8,1.8,1,2.7,1.7c0.9,0.7,2,1.8,2.4,2.2
		c3.3,2.5,7.5,5.2,11,6.2c0.1,0,1,0.2,1.9,0.3c0.3,0.2,0.6,0.3,0.6,0.3c1.7,0.6,4.7,1,5.9,1.3c1.5,0.3,3.1,0.5,4.9,0.9
		c4.6,1.3,9.2,2.5,13.6,2.7c7.4,0.3,14.1-0.7,22.1-3.8c2.1-0.8,3.8-2.4,4.4-3.2c2.5-0.4,3.6-1.8,6.5-4.5c0.6-0.2,1.2-0.4,1.6-0.6
		c0.4-0.3,0.6-0.6,1-0.9c0.7-0.5,1.2-0.7,1.5-1.3c0.5-0.9,0.5-1.9,0.7-2.9C2352.1,1230.8,2351.8,1230.1,2351.5,1229.9z
		 M2320.4,1230.2c0,0.1,0,0.3,0.1,0.4c0,0,0,0.1,0,0.1c-0.1,0.1-0.1,0.1-0.2,0.2C2320.3,1230.6,2320.4,1230.4,2320.4,1230.2z
		 M2341.1,1211.1c-0.1,0.1-0.2,0.2-0.3,0.2c0.1-0.1,0.3-0.2,0.4-0.4L2341.1,1211.1z"/>
	<path id="XMLID_97_" class="st1" d="M2690.6,891c0-0.5-0.2-1-0.1-1.5c0,0,0-0.1,0-0.1c-0.3-0.8-1-1.5-1.9-1.7
		c-0.4,0.1-0.7-0.1-1.1,0.1c0.1-0.6,0.7-0.8,0.7-1.6c0-0.8-1-1.3-0.8-1.7c-9.5-4.2-18.6-10.1-28.5-12.5c-4.2-1.1-8.5-1.4-12.7-2.3
		c-7.5-0.7-15-2.3-22.7,0.1c-0.7,0.9-2.6,0.3-2.5,1.8c-0.6,0.4-1.8-0.1-2,0.9c0.1,0.5,0.6,0.4,0.9,0.7c-0.7,0.3-1.8-0.1-2.3,0.6
		l0.8,0.8c-0.7,0.5-1.7-0.2-2.1,0.7l0.2,0.6c-0.5,0.2-1.6-0.1-1.8,0.7c0,0.4,0.3,0.6,0.5,0.8c-0.8,0.3-1.9,0-2.5,0.8
		c0.1,0.2,0.2,0.4,0.3,0.6c-0.5,0.2-1.8,0-1.8,1c-1.4-0.5-1.6,1.2-3,0.9c-0.4,0.7-1.6,0.1-1.9,0.9c-0.4,0.2-1.1-0.1-1.4,0.5
		c0.2,1-1.3,0.4-0.9,1.4l-0.2,0.2c-0.4,0.1-1,0.6-1.5,1c-2.9,0.6-5.2,2.4-7.5,4c-1.1,1.8-2.2,3.3-2.4,5.4c-0.3,2.3,1,4.6,2.2,6.4
		c-0.6,0.1-1.1,0.1-1.7,0.1c-0.8-0.1-1.7-0.2-2.5-0.4c-1.2-0.2-2.5-0.5-3.8-0.5c-3.4-0.8-7.3-0.4-11.1,0.2c-0.5,0.2-1.4,0.2-1.2,1
		c0.4,0.5-0.3,0.8-0.2,1.3c0.7,1.9,1.5,3.9,3.5,4.8c0.2,0.2,0.3,0.4,0.4,0.6c0.8,1.1,1.4,2.3,2.8,3.1c0.4,1.1,1.3,1.2,1.6,2.3
		c1,0.8,3.3,0.6,2.8,2.4c-0.2,0.8,0.8,1.7,0.4,2.6c1.1,0.8,0.7,2.7,2.2,3.1c1,0.4,1.8,0.2,2.6-0.3l0.2,0l0.7-0.7
		c0.6-0.5,1.2-1.1,1.8-1.5c1.8-1.3,3.1-3.5,5.1-4.7l1.1-0.5c0,0,0.2-0.1,0.6-0.2c0.3-0.1,0.6-0.1,1-0.1c-0.9,2.1-2.1,5-0.6,7.3
		c0.1,0.1,0.2,0.2,0.2,0.3c0,0,0,0,0,0c0,0,0,0,0,0c0.2,0.3,0.5,0.5,0.8,0.7c1.1,0.9,2.5,1.5,3.8,1.7l0.5,0.2
		c4.1-0.2,7.1-2.5,10.4-4.2c0.6-0.5,1.1-1.2,1.4-2c0.1-0.4-0.1-0.9-0.3-1.3l-0.1-0.5c1.1,0.2,2.5,0.4,4,0.7c2.6,0.6,5.3,0.9,7.8,1.5
		c3.9,0.4,7.2,1,11.3,0.3c-1.4,2.9-6.6,3.6-5.5,7.9c-0.8,0.7-0.4,1.7-0.1,2.4c1.1,1.3,2.7,0.4,3.9-0.1c1-0.8,2.1-1.3,3.1-1.8
		c1.6-1.4,3-2.7,3.9-4.6c1.4-2,3.3-3.3,3.9-5.7c7.4-0.6,12.6-5.4,18.8-8.3c4.2-2.6,7.9-5.9,12.3-8.1c1.6-2.2,4.3-2.8,5.9-4.8
		l3.2-2.4c0.5-0.3,0.6-0.7,0.6-1.2l0.2-0.3C2690.7,890.9,2690.7,890.9,2690.6,891z M2598.5,900.8c-0.2,0.4-0.3,0.6-0.3,0.6
		s-0.1,0-0.2,0L2598.5,900.8z M2595.9,888.8c-0.3,0.3-0.6,0.6-0.9,1l0,0C2595.2,889.3,2595.5,889,2595.9,888.8z M2594.8,890.2
		c-0.1,0.2-0.3,0.4-0.4,0.6C2594.5,890.5,2594.5,890.3,2594.8,890.2C2594.7,890.2,2594.8,890.2,2594.8,890.2z M2594,891.4
		C2594.1,891.4,2594.1,891.4,2594,891.4c-0.1,0.5-0.3,0.9-0.4,1.4C2593.7,892.4,2593.7,891.8,2594,891.4z M2593.5,893.4
		c0,0.2-0.1,0.5-0.1,0.7C2593.2,893.8,2593.3,893.5,2593.5,893.4z M2594.6,899.3c-0.8-1.5-1.8-3-1.2-4.7c0,0,0,0,0,0
		c-0.1,1.9,0.6,3.5,1.5,4.7C2594.7,899.3,2594.7,899.3,2594.6,899.3z M2596,901l-1.3-1.2c0.1-0.1,0.2-0.2,0.3-0.2
		c0.6,0.7,1.2,1.3,1.6,1.6c-0.1,0-0.3,0-0.5-0.1C2596.1,901,2596,901,2596,901z M2579.8,899.9c1.8-0.2,3.6-0.2,5.3,0l0.3,0.4
		c-4.4-0.9-8.6,0.1-10.1,0.5C2576.5,899.8,2578.4,900.3,2579.8,899.9z M2575,901.7l1.7,3l-0.3,0c-0.9-0.6-1.5-1.6-1.6-2.6l0.3,0
		C2575.1,902,2575.1,901.9,2575,901.7z M2576.5,905c0.1,0,0.2,0,0.3-0.1l0.9,1.5C2577.2,906,2576.5,905.7,2576.5,905z M2579.8,908.8
		l0.9,1c0,0,0,0,0,0C2580.3,909.5,2580,909.2,2579.8,908.8z M2581.5,910.6l0.8,0.9c0,0,0,0-0.1,0
		C2581.9,911.3,2581.6,911,2581.5,910.6z M2582.7,911.9l1,0.8C2583.3,912.5,2582.9,912.3,2582.7,911.9z M2586,915.3
		c0.1-0.1,0.2-0.1,0.3-0.2l0.4,1.6l-0.2,0.2C2586.5,916.3,2585.7,915.9,2586,915.3z M2586.6,918.1l-0.1-0.9c0.1-0.1,0.3-0.2,0.4-0.3
		l0.5,2C2587.1,918.8,2586.8,918.3,2586.6,918.1z M2590,920.6c-0.8,0.1-1.7,0.1-2.3-0.6L2590,920.6
		C2590,920.6,2590,920.6,2590,920.6z M2602.1,913.2c0,0-1.9,2.5-2.1,5C2599.8,916.3,2600.5,914.4,2602.1,913.2z M2604.4,922.5
		c2.2,0.3,4.7-0.1,6.8-0.9C2609.2,922.6,2606.6,923.3,2604.4,922.5z M2626.9,917c2,0.2,3.9,0.5,5.7,0.6
		C2630.7,917.7,2628.8,917.3,2626.9,917z"/>
	<path id="XMLID_76_" class="st1" d="M2591,1160.2c-0.1-0.5-0.2-1.1-0.4-1.5c0,0,0-0.1,0-0.1c0-0.9,0.5-1.8,1.3-2.3
		c0.5,0,0.7-0.3,1.2-0.3c-0.3-0.6-1-0.6-1.2-1.3c-0.3-0.7,0.6-1.6,0.2-1.9c8.1-7.2,15.2-16,24.3-21.6c3.8-2.4,8-4.1,11.9-6.4
		c7.3-3.1,14.2-7.2,22.6-7.3c1,0.7,2.7-0.6,3.1,1c0.8,0.2,1.8-0.7,2.3,0.2c0.1,0.5-0.5,0.6-0.6,1c0.8,0.1,1.8-0.7,2.5-0.2l-0.5,1.1
		c0.8,0.3,1.6-0.8,2.3,0l-0.1,0.6c0.6,0,1.6-0.6,2,0c0.1,0.4-0.1,0.6-0.3,0.9c0.9,0,1.9-0.6,2.7-0.1c-0.1,0.2-0.1,0.5-0.1,0.7
		c0.6,0,1.8-0.6,2.1,0.4c1.3-0.9,2,0.7,3.3-0.1c0.6,0.6,1.6-0.4,2.2,0.3c0.5,0,1.1-0.4,1.5,0.1c0.2,1,1.4-0.1,1.3,1.1l0.2,0.2
		c0.5-0.1,1.2,0.2,1.8,0.5c3.1-0.4,5.9,0.6,8.8,1.4c1.7,1.4,3.3,2.5,4.2,4.5c1.1,2.1,0.5,4.8-0.1,6.9c0.6-0.1,1.2-0.3,1.7-0.5
		c0.8-0.4,1.6-0.8,2.4-1.2c1.2-0.6,2.3-1.3,3.6-1.7c3.2-2,7.2-2.8,11.1-3.4c0.5,0,1.5-0.2,1.5,0.6c-0.2,0.6,0.6,0.7,0.6,1.2
		c-0.1,2.1-0.2,4.3-1.9,5.9c-0.1,0.2-0.2,0.5-0.2,0.7c-0.4,1.4-0.7,2.7-1.7,3.9c-0.1,1.2-0.9,1.5-0.9,2.7c-0.7,1.1-3.1,1.7-2,3.3
		c0.4,0.7-0.3,1.9,0.4,2.7c-0.9,1.1,0.2,2.9-1.2,3.7c-0.9,0.7-1.8,0.7-2.7,0.6l-0.2,0.1l-1-0.4c-0.8-0.3-1.6-0.7-2.3-0.9
		c-2.2-0.7-4.3-2.4-6.6-2.9l-1.3-0.1c0,0-0.3,0-0.6,0c-0.3,0-0.7,0.1-1,0.2c1.6,1.8,3.7,4.2,3,6.9c0,0.1-0.1,0.3-0.1,0.4
		c0,0,0,0,0,0c0,0,0,0,0,0c-0.1,0.3-0.3,0.6-0.5,0.9c-0.8,1.3-2,2.3-3.3,2.9l-0.4,0.4c-4.1,1.2-7.9-0.1-11.8-0.6
		c-0.8-0.3-1.5-0.8-2.1-1.4c-0.2-0.4-0.2-0.9-0.1-1.3l0-0.6c-1,0.6-2.4,1.3-3.8,2c-2.4,1.4-4.9,2.6-7.3,4c-3.8,1.6-6.8,3.4-11.2,4
		c2.3,2.3,7.8,1.4,8.1,5.9c1,0.4,1,1.5,0.9,2.3c-0.7,1.6-2.6,1.3-3.9,1.2c-1.2-0.4-2.5-0.5-3.7-0.7c-2-0.8-3.8-1.7-5.4-3.2
		c-2.1-1.5-4.4-2.2-5.8-4.3c-7.5,1.9-14.3-1.1-21.4-1.9c-5-1.2-9.8-3.2-14.9-3.9c-2.3-1.7-5.2-1.3-7.5-2.8l-4-1.3
		c-0.6-0.2-0.9-0.5-1-0.9l-0.3-0.3C2590.8,1160.1,2590.9,1160.1,2591,1160.2z M2685.9,1139.4c0.3,0.3,0.5,0.5,0.5,0.5s0.1,0,0.1-0.1
		L2685.9,1139.4z M2684.6,1126.8c0.4,0.2,0.8,0.4,1.2,0.7l0,0C2685.4,1127.1,2685,1126.9,2684.6,1126.8z M2686.2,1127.8
		c0.2,0.1,0.4,0.3,0.6,0.4C2686.6,1128,2686.5,1127.8,2686.2,1127.8C2686.2,1127.8,2686.2,1127.8,2686.2,1127.8z M2687.3,1128.7
		C2687.3,1128.7,2687.3,1128.7,2687.3,1128.7c0.3,0.4,0.6,0.8,0.9,1.2C2687.9,1129.6,2687.8,1129,2687.3,1128.7z M2688.5,1130.5
		c0.1,0.2,0.2,0.4,0.3,0.6C2688.9,1130.8,2688.8,1130.6,2688.5,1130.5z M2689.4,1136.6c0.3-1.7,0.8-3.5-0.3-5c0,0,0,0,0,0
		c0.7,1.9,0.5,3.6,0,5C2689.2,1136.6,2689.3,1136.6,2689.4,1136.6z M2688.5,1138.7l0.9-1.6c-0.1-0.1-0.3-0.1-0.4-0.1
		c-0.3,0.9-0.7,1.6-1.1,2.1c0.1-0.1,0.3-0.1,0.4-0.2C2688.4,1138.8,2688.5,1138.8,2688.5,1138.7z M2704.3,1132.3
		c-1.9,0.4-3.6,1-5.3,1.8l-0.1,0.5c4.1-2.4,8.6-2.8,10.3-2.8C2707.6,1131.1,2705.8,1132.3,2704.3,1132.3z M2709.7,1132.5l-0.7,3.5
		l0.3-0.1c0.7-0.9,0.9-2,0.7-3.1l-0.3,0C2709.7,1132.8,2709.7,1132.7,2709.7,1132.5z M2709.3,1136.2c-0.1,0-0.2,0-0.4,0.1l-0.4,1.7
		C2709,1137.4,2709.5,1136.9,2709.3,1136.2z M2707.2,1141l-0.6,1.3c0,0,0,0,0,0C2707,1141.9,2707.2,1141.5,2707.2,1141z
		 M2706.2,1143.3l-0.5,1.2c0,0,0.1,0,0.1,0C2706,1144.1,2706.1,1143.7,2706.2,1143.3z M2705.4,1145l-0.8,1.1
		C2705,1145.8,2705.3,1145.5,2705.4,1145z M2703.2,1149.4c-0.1,0-0.3-0.1-0.4-0.1l0.1,1.7l0.2,0.1
		C2703.1,1150.5,2703.7,1149.9,2703.2,1149.4z M2703.6,1152.3l-0.1-0.9c-0.2,0-0.3-0.1-0.5-0.2l0.1,2.1
		C2703.3,1153.1,2703.4,1152.6,2703.6,1152.3z M2701,1155.9c0.8-0.2,1.8-0.5,2.1-1.3L2701,1155.9
		C2701,1155.9,2701,1155.9,2701,1155.9z M2686.5,1152.6c0,0,2.7,1.8,3.7,4.2C2689.8,1154.9,2688.5,1153.2,2686.5,1152.6z
		 M2687.2,1162.5c-2,1-4.7,1.5-7.1,1.4C2682.5,1164.2,2685.4,1164,2687.2,1162.5z M2663,1164.5c-1.9,0.9-3.8,1.8-5.4,2.5
		C2659.5,1166.4,2661.2,1165.4,2663,1164.5z"/>
	<path id="XMLID_88_" class="st2" d="M2060.5,548.7c-1.1,0.6-9.7,3.7-9.7,3.7s0-7.1-3.5-10.2c-3.5-3.1-6.6-5.1-4.3-5.5
		c2.3-0.5,5.5-0.9,7-0.3c1.5,0.6,3.7,2.6,5.8,5.1C2058,544.1,2060.3,548.7,2060.5,548.7L2060.5,548.7z M2047.9,902
		c10-3.9,28.2-10.3,44.3-15.8c4.1,13.7,13.3,42.6,20.4,52.5c9.4,13.2,13.1,19.7,28,14.6c14.9-5.1,78.8-33.8,78.8-33.8
		s5.1-1.1,7.8-1.7c2.8-0.6,12.2-6.3,14.9-5.8c2.7,0.4,5.7,1.7,9.1,3.8c3.4,2.1,8.3,4.9,15.5,7.9c7.3,3,27.8,18.4,29.6,21.7
		c10.8,18.4,25.2,47.9,28.8,46.2c3.6-1.7,41.7-55.4,36.7-59.2c-49.7-38.4-88.7-42.5-91.8-51.3c-3.1-8.7-9.6-16.1-14.6-17.8
		c-5-1.7-7.4-0.2-10.6,1.6c-3.3,1.8-6.3,7.3-7.4,10c-1.1,2.7-4.7,9.4-6.8,10.3c-2.1,0.9-7.3,5.6-7.5,4.7c-0.1-0.9-2.2-5.9-3.4-5.9
		c-1.2,0-2.1,1.2-2.3,2.6c-0.2,1.3-1.1,3.8-3.1,4c-1.1,0.1-10.3,1.1-20,2.6c-8.2-5.3-17.3-11.7-20.6-15.5c-6.4-7.6-6.2-6.3-7.2-12.9
		c-0.9-6.6-5.4-9.9-7.6-16c-2.1-6.1-6.7-11.2-10.1-12.4c-3.4-1.2-5.1-0.2-7.4,1.1c-0.4,0.2-0.8,0.6-1.2,0.9
		c-1.3-13-2.6-24.8-3.3-27.5c-1.6-6.4-1.3-7-1.3-7s15.6,3.4,28.1-4.2c12.4-7.6,19.2-17.9,19.2-17.9s-30.8-112-30.5-112.8
		c0.3-0.8,2.8-1.7,4-3.5c1.1-1.8-2.1-19.7-3.4-22.4c-1.4-2.7-0.3-2.6-2.1-3c-1.8-0.4-6.9-0.6-6.9-0.6l-5.5-21.1
		c0,0,1.3-15.1-6.7-24.7c-8.1-9.6-14.1-13-14.1-13s-12.8-9.8-18.1-11.5c-5.3-1.7-8.7-3.8-8.7-3.8s-1.2-4-2-4.9
		c-0.9-0.9,0.3,0.1-1.9-3.1c-2.2-3.2-1.9-3.5-3.9-4.3c-2-0.8-3.4-0.9-3.4-0.9s-2.2-4.1-3.7-5.5c-1.6-1.4-2.1-1.3-2.1-1.3
		s2-2.2-0.2-2.9c-2.2-0.7-5.6-0.6-5.6-0.6s-7.7-6.6-12-7.3c-4.3-0.7-7.8-4.2-13-3.7c-5.2,0.5-6.8,0.9-6.8,0.9s-5.3-4.3-12.8-5.5
		s-12.9-0.2-12.9-0.2s-18.9-0.3-27.8,7.4c-8.9,7.6-9,19-10.4,22.3c-1.4,3.3-1.9,8.8-1.9,8.8s-4.7-0.1-6.1,0.3
		c-1.3,0.4-4.6,13.6-5,16.3c-0.4,2.7-1.8,4.7,0.6,5c2.4,0.3,5.2,2,5.2,2s-2.7,3.1-1.9,4.5c0.8,1.4,3.7,2.3,3.9,3.8
		c0.2,1.5-1,3.5-1,3.5c-0.8-0.3-2.7-0.6-2.7-0.6s-1.2-2.1-1.6-2.3c-0.5-0.2-2.4,0.3-2.4,0.3l-1.1,2.6l-2.8,2c0,0,0.2-0.4-3.6-0.9
		s-6,0-6,0s1.8-3.8,2.4-3.8c0.5,0,3.3-0.3,5.6-1c2.3-0.7,4.5-2.4,4.7-3.3c0.1-0.9,0.6-2-0.7-1.8c-1.3,0.2-11.9,2.6-13.7,3.2
		c-1.7,0.5-3.6,1.7-4.2,2.7c-0.6,1-1.4,5.9-1.4,5.9s-2.1,2.2-2.6,2.9c-0.6,0.7-0.7,2.3-0.7,2.3s-1.3,1.9-1.8,2.9
		c-0.5,1-0.6,2.7-0.6,2.7l0.6,1.6c0,0-1.4,2.2-1.4,3.1c0.1,0.9,0.5,3.1,0.8,4.3c0.3,1.2-0.1,6.1-0.4,9.5c-0.3,3.4-7.1,38.1-9.9,52.9
		c-2.8,14.8-3.1,31-0.5,34.2c2.6,3.2,11.4,2.1,13.1,1.9c1.7-0.2,2.6-0.2,2.6-0.2l15.1,5.5c0,0,1.7,2.7,4,3.1
		c2.3,0.4,8.5-0.1,8.5-0.1l0.9,4.6c0,0-19.5,13.6-20.1,14.7c-0.6,1.1,1,9.8,5.3,14.8c4.3,5,7.5,7.2,8.9,6.2c1.5-1,3.3-4.1,3.3-4.1
		s10.4-3.6,10.4-5.2c0-1.6-2.5-9.2-4.1-10.2c-1.5-1-5.1,0.7-5.1,0.7l-1.9-3.6c0,0,10.6-6.6,13.2-7.8c2.6-1.2,2.9-2.7,3.8-2.8
		c0.9-0.1,2.2,0.6,2.5,2.8c0.3,2.3-1.3,15.1-0.4,15.8c0.9,0.7-1.8,2.6-2.7,4c-0.9,1.4-1.7,5,0.6,4.1c2.3-0.8,4.4-1.9,5.3-0.8
		c1,1.1,1.9,6.1,1.9,6.1s-3.4,4.6-4.4,5.8c-1,1.2-4.2,3.2-3.8,6.1c0.4,2.8,2.3,6.3,4.4,4.9c2-1.5,5.3-2,5.3-2s-3.4,7.6-1.6,9.3
		c1.8,1.6,4.2,2.7,5.4,0.7c1.2-2,2.1-2.1,2.1-2.1s1.3,5,2.7,4.7c1.4-0.3,2.2-1.8,3.2-1.7c1,0.1,1.4-0.3,2.8,0.5
		c1.4,0.8,1.6,2.6,2.9,3.3c1.3,0.7,3-0.3,3.6-1.7c0.6-1.4-0.2-1.7,1.4-3.3c1.6-1.6,0.8-2.8,2.7-1.9c1.9,1,2.2,0.6,1.4,3.4
		c-0.8,2.8-9.6,16.6-9.6,16.6s-11.6,4.4-14,8.3c-2.4,4-13.6,27.3-12.8,30.5c0.8,3.2,4,10.9,10.3,11.1c6.3,0.2,12.4-5.8,12.4-5.8
		l6.6-12.3c0,0,7.7-16.7,7-18c-0.7-1.3-2.3-8.1-2-9.2c0.3-1.1,6.2-20.7,8-19.2c1.9,1.5,5.8,4.9,5.5,9.8
		c-0.3,4.9-16.1,41.9-18.9,57.8c-2.8,15.9-5.6,28.6-5.6,28.6s-0.6,6.5,1.9,11.5c2.5,5,3.4,8.9,20,7.3
		C2034,910.7,2042.4,906.1,2047.9,902L2047.9,902z M2143.4,871.5c0.8,0.4,1.6,0.8,2.4,1.4c2.3,1.5,5.7,3.4,10.8,5.5
		c5,2.1,18.5,13.4,20.6,15c0.5,0.4,1.2,1.4,2,2.7c-2.3,0.6-4.3,1.2-5.9,1.9c-9.6,4.2-23.9,13.1-25.5,11.7
		c-1.6-1.4-3.8-31.6-3.8-31.6S2143.8,875.5,2143.4,871.5L2143.4,871.5z M2060.7,608c0.1-0.2,4.9,0.6,5.6-0.3c0.8-0.9,1.4-0.3,2-4
		c0.6-3.6,0.8-6.2,2.8-8.8c2-2.6,1.5-7.4,1.1-9.3c-0.4-2-2-7.4-2-7.4l-9.3,0.9c0,0-1.4-10.7-0.6-11.6c0.7-0.9,6.2-2,6.2-2l-2.2-11.2
		c0,0-8.9,1.3-10.4,2.2c-1.5,1-1.3,1-1.3,2.7c0,1.6-1.7,7.8-2.8,13c-1.1,5.2-7.3,14.5-8,16.2c-0.7,1.7,0.7,6.3,1.2,9
		c0.5,2.7,0.5,4.8,2.3,7.5C2047.2,607.6,2057.7,608.3,2060.7,608L2060.7,608z M1977.2,624.3C1977.2,624.3,1977.2,624.3,1977.2,624.3
		C1977.2,624.3,1977.2,624.3,1977.2,624.3L1977.2,624.3z M1988.5,624.6c0,1.1-8.7,8.8-11.9,13.9c-3.2,5.1-3.9,3.3-7.8,6
		c-3.9,2.6-7.4,11.8-9.2,18.5c-1.7,6.7-15.2,14.2-15.2,14.2s-2.6-23.5-1.8-26.3c0.8-2.8,7-19.8,7-19.8s1.5,0.3,2.3,1.3
		c0.8,1,5.3,6,7.2,5.3c1.9-0.6,3.3-1.6,3.3-1.6s2.1-0.9,3.8-0.7c1.7,0.2,6.2-1.3,7.2-2.8c1-1.5,3.4-7.7,3.6-8.2
		c0.1,0,1.8,0.2,4.2,0.1c2.7-0.1,3.8-1,5.4-1.1C1988.5,623.2,1988.5,623.5,1988.5,624.6L1988.5,624.6z M2058.9,867.9
		c0,0,13.9-18.8,15.9-20.9c0.2,0.4,3.4,2.1,5.4,4.6c2,2.4,3.4,8.9,4,9.9S2058.9,867.9,2058.9,867.9L2058.9,867.9z M1973.6,724.2
		c0,0,6.8-5.3,9.2-5.8c0,0-0.1,3.5,0.1,6.4c0.2,2.9-0.1,5.3-0.3,7c-0.2,1.7-1.3,1.8-2.5,1.3c-1.2-0.5-3.4-1.1-3.7-2.3
		C1976.3,729.8,1973.6,724.2,1973.6,724.2L1973.6,724.2z M1950.5,709c3.3-2.7,11-9.8,16.1-13.3c5.1-3.6,13.5-11.8,13.5-11.8
		s-1.1,5.2-2.2,8.7c-1.1,3.4-3.7,11.3-2.6,13.8c1.1,2.6-1.7,3.2-6.6,6.5c-4.9,3.3-15.3,6.4-16.1,7.1c-0.8,0.7-8-2.5-8.9-3
		C1943.7,716.8,1947.2,711.7,1950.5,709z"/>
</g>
</svg>
